<svg width="61" height="17" viewBox="0 0 61 17" fill="none" xmlns="http://www.w3.org/2000/svg">
<g clip-path="url(#clip0_2064_1494)">
<path d="M10.3894 10.3399L10.2817 10.6733C10.1031 10.6389 9.96139 10.5727 9.78282 10.5727C9.49654 10.5727 9.42568 10.6733 9.42568 10.8055C9.42568 11.0727 10.2477 10.9722 10.2477 11.5383C10.2477 11.9722 9.89052 12.2711 9.35481 12.2711C9.10538 12.2711 8.88997 12.2367 8.7114 12.1389L8.85312 11.7394C9.03169 11.8399 9.21026 11.8717 9.42568 11.8717C9.67511 11.8717 9.78282 11.7711 9.78282 11.6045C9.78282 11.3055 8.96083 11.4378 8.96083 10.8717C8.96083 10.4722 9.24711 10.1706 9.85368 10.1706C9.99823 10.2077 10.2477 10.2394 10.3894 10.3399Z" fill="#58595B"/>
<path d="M10.4262 12.2394L10.6757 10.6389H11.1405L10.8911 12.2394H10.4262ZM11.2114 10.2394C11.2114 10.3717 11.1037 10.4722 10.9251 10.4722C10.7834 10.4722 10.6757 10.4378 10.6757 10.3399C10.6757 10.2077 10.7834 10.1071 10.9619 10.1071C11.1774 10.1071 11.2114 10.1389 11.2114 10.2394Z" fill="#58595B"/>
<path d="M12.7107 10.9722C12.7107 11.3055 12.4244 11.5066 11.747 11.5727C11.747 11.8399 11.8547 11.8717 12.0673 11.8717C12.209 11.8717 12.3536 11.8373 12.4953 11.7394L12.603 12.0066C12.4613 12.1388 12.2458 12.2394 11.9596 12.2394C11.6024 12.2394 11.353 12.0727 11.353 11.6389V11.4061C11.4607 10.8717 11.7101 10.5727 12.2458 10.5727C12.5321 10.5727 12.7107 10.7738 12.7107 10.9722ZM11.7838 11.3399C12.2118 11.3055 12.3564 11.1732 12.3564 11.041C12.3564 10.9404 12.3195 10.9087 12.2147 10.9087C11.9256 10.9061 11.8178 11.041 11.7838 11.3399Z" fill="#58595B"/>
<path d="M13.819 11.2738V11.1415C13.819 11.0092 13.7822 10.9748 13.6405 10.9748C13.4619 10.9748 13.3542 11.1071 13.3202 11.3081L13.1784 12.2076H12.7136L12.963 10.6071H13.3202V10.6415V10.742C13.4619 10.6097 13.6064 10.5753 13.819 10.5753C14.0685 10.5753 14.1393 10.6759 14.1762 10.8081C14.3179 10.6759 14.4965 10.5753 14.7487 10.5753C15.035 10.5753 15.1767 10.742 15.1767 11.041V11.2076L15.035 12.1732H14.5702L14.7119 11.2076V11.0753C14.7119 10.9431 14.675 10.9087 14.5333 10.9087C14.3547 10.9087 14.247 11.041 14.213 11.3081L14.0713 12.2076H13.6064L13.819 11.2738Z" fill="#58595B"/>
<path d="M16.9965 11.1389V11.4378C16.8888 12.004 16.6393 12.2711 16.2453 12.2711C16.1036 12.2711 15.9591 12.2368 15.8882 12.1706L15.7805 12.6362H15.3156L15.6019 10.6362H15.9591V10.6706V10.7712C16.1008 10.6389 16.2794 10.6045 16.4579 10.6045C16.8547 10.5727 16.9965 10.7738 16.9965 11.1389ZM15.9619 11.2738L15.8542 11.8399C15.891 11.8743 15.9959 11.9405 16.1036 11.9405C16.3531 11.9405 16.4239 11.8082 16.4608 11.4749V11.2421C16.4608 11.0093 16.353 10.9749 16.2113 10.9749C16.1405 10.9405 15.9959 11.0727 15.9619 11.2738Z" fill="#58595B"/>
<path d="M18.4251 10.6389L18.2833 11.0383C18.2465 11.0039 18.1756 11.0039 18.1048 11.0039C17.8553 11.0039 17.6768 11.1706 17.6399 11.5383L17.5322 12.2394H17.0674L17.3168 10.6389H17.6739V10.7711V10.8717C17.8156 10.705 17.9942 10.6045 18.1728 10.6045C18.3542 10.5727 18.3882 10.6389 18.4251 10.6389Z" fill="#58595B"/>
<path d="M19.8167 10.9722C19.8167 11.3055 19.5304 11.5066 18.8529 11.5727C18.8529 11.8399 18.9607 11.8717 19.1732 11.8717C19.315 11.8717 19.4595 11.8373 19.6012 11.7394L19.7089 12.0066C19.5672 12.1388 19.3518 12.2394 19.0655 12.2394C18.7084 12.2394 18.459 12.0727 18.459 11.6389V11.4061C18.5667 10.8717 18.8161 10.5727 19.3518 10.5727C19.6381 10.5727 19.8167 10.7738 19.8167 10.9722ZM18.8898 11.3399C19.3178 11.3055 19.4623 11.1732 19.4623 11.041C19.4623 10.9404 19.4255 10.9087 19.3206 10.9087C19.0315 10.9061 18.9238 11.041 18.8898 11.3399Z" fill="#58595B"/>
<path d="M20.7464 10.6389H20.9959L21.1376 10.2394L21.4947 10.205L21.4579 10.6389H21.8859L21.849 10.9378H21.421L21.3133 11.6389V11.7394C21.3133 11.8717 21.3502 11.9061 21.455 11.9061C21.4919 11.9061 21.5968 11.9061 21.6336 11.8717V12.1706C21.5259 12.205 21.3842 12.2711 21.2765 12.2711C20.9902 12.2711 20.8485 12.1389 20.8485 11.8373V11.705L20.9562 10.9722H20.7068L20.7464 10.6389Z" fill="#58595B"/>
<path d="M23.53 10.9722C23.53 11.3055 23.2438 11.5066 22.5663 11.5727C22.5663 11.8399 22.674 11.8717 22.8866 11.8717C23.0283 11.8717 23.1729 11.8373 23.3146 11.7394L23.4223 12.0066C23.2806 12.1388 23.0652 12.2394 22.7789 12.2394C22.4218 12.2394 22.1723 12.0727 22.1723 11.6389V11.4061C22.28 10.8717 22.5295 10.5727 23.0652 10.5727C23.3515 10.5727 23.53 10.7738 23.53 10.9722ZM22.5663 11.3399C22.9943 11.3055 23.1389 11.1732 23.1389 11.041C23.1389 10.9404 23.102 10.9087 22.9972 10.9087C22.7449 10.9061 22.674 11.041 22.5663 11.3399Z" fill="#58595B"/>
<path d="M24.7091 11.2394V11.1388C24.7091 11.0066 24.6723 10.906 24.5306 10.906C24.352 10.906 24.2103 11.0383 24.1734 11.2394L24.0317 12.1388H23.5669L23.8163 10.541H24.1734V10.6415V10.742C24.3152 10.6097 24.4937 10.5092 24.6723 10.5092C24.9926 10.5092 25.1371 10.6759 25.1371 10.9748V11.1415L24.9954 12.1415H24.5306L24.7091 11.2394Z" fill="#58595B"/>
<path d="M26.8149 10.9722C26.8149 11.3055 26.5287 11.5066 25.8512 11.5727C25.8512 11.8399 25.9589 11.8717 26.1715 11.8717C26.3132 11.8717 26.4578 11.8373 26.5995 11.7394L26.7072 12.0066C26.5655 12.1388 26.3501 12.2394 26.0638 12.2394C25.7067 12.2394 25.4572 12.0727 25.4572 11.6389V11.4061C25.565 10.8717 25.8144 10.5727 26.3501 10.5727C26.6364 10.5727 26.8149 10.7738 26.8149 10.9722ZM25.8881 11.3399C26.3161 11.3055 26.4606 11.1732 26.4606 11.041C26.4606 10.9404 26.4238 10.9087 26.3189 10.9087C26.0298 10.9061 25.9221 11.041 25.8881 11.3399Z" fill="#58595B"/>
<path d="M28.1727 10.6733L27.9941 10.9722C27.8864 10.9378 27.7447 10.9378 27.637 10.9378C27.5293 10.9378 27.3875 10.9722 27.3875 11.1045C27.3875 11.3373 28.0309 11.2368 28.0309 11.6706V11.7712C27.9941 12.0701 27.7815 12.3055 27.3167 12.3055C27.0672 12.3055 26.8887 12.2711 26.7441 12.1389L26.8858 11.8399C27.0276 11.9405 27.1721 11.9722 27.3138 11.9722C27.4924 11.9722 27.5633 11.8717 27.5633 11.8055C27.5633 11.5727 26.9198 11.6389 26.9198 11.205C26.9198 10.9061 27.2061 10.6389 27.671 10.6389C27.8864 10.5727 28.0281 10.6389 28.1727 10.6733Z" fill="#58595B"/>
<path d="M30.5651 11.2738V11.1415C30.5651 11.0092 30.5283 10.9748 30.3865 10.9748C30.208 10.9748 30.1003 11.1071 30.0663 11.3081L29.9245 12.2076H29.4597L29.7091 10.6071H30.0663V10.6415V10.742C30.208 10.6097 30.3525 10.5753 30.5651 10.5753C30.7777 10.5753 30.8854 10.6759 30.9223 10.8081C31.064 10.6759 31.2425 10.5753 31.4948 10.5753C31.7811 10.5753 31.9228 10.742 31.9228 11.041V11.2076L31.7811 12.1732H31.3162L31.458 11.2076V11.0753C31.458 10.9431 31.4211 10.9087 31.2794 10.9087C31.1008 10.9087 30.9931 11.041 30.9591 11.3081L30.8174 12.2076H30.3525L30.5651 11.2738Z" fill="#58595B"/>
<path d="M33.7424 10.6389H33.7792L33.5298 12.2394H33.1698V12.205V12.1045C33.0281 12.2368 32.8495 12.2712 32.6709 12.2712C32.3507 12.2712 32.1721 12.1045 32.1721 11.7368C32.1721 11.0701 32.6001 10.6045 33.2435 10.6045C33.4221 10.5728 33.4929 10.6389 33.7424 10.6389ZM33.1698 11.541L33.2775 10.9405H33.1358C32.8495 10.9405 32.671 11.1071 32.6369 11.5066V11.6733C32.6369 11.8399 32.6738 11.9405 32.8864 11.9405C33.0281 11.9405 33.1698 11.7738 33.1698 11.541ZM33.7792 10.1071L33.3512 10.5066H33.0309L33.2804 10.1071H33.7792Z" fill="#58595B"/>
<path d="M26.8149 10.1071L26.3869 10.5066H26.0666L26.3161 10.1071H26.8149Z" fill="#58595B"/>
<path d="M35.171 10.6733L34.9924 10.9722C34.8847 10.9378 34.743 10.9378 34.6353 10.9378C34.5275 10.9378 34.3858 10.9722 34.3858 11.1045C34.3858 11.3373 35.0292 11.2368 35.0292 11.6706V11.7712C34.9924 12.0701 34.7798 12.3055 34.315 12.3055C34.0655 12.3055 33.887 12.2711 33.7424 12.1389L33.8841 11.8399C34.0258 11.9405 34.1704 11.9722 34.3121 11.9722C34.4907 11.9722 34.5616 11.8717 34.5616 11.8055C34.5616 11.5727 33.9181 11.6389 33.9181 11.205C33.9181 10.9061 34.2044 10.6389 34.6693 10.6389C34.8847 10.5727 35.1001 10.6389 35.171 10.6733Z" fill="#58595B"/>
<path d="M3.64341 5.80821C3.46484 5.77382 3.17856 5.67594 2.89228 5.67594C2.24886 5.67594 2.07029 5.94313 2.07029 6.71032C2.07029 7.54365 2.24886 7.81084 2.89228 7.81084C3.17856 7.81084 3.39114 7.77645 3.64341 7.67857L3.75111 8.5119C3.46484 8.64417 3.1077 8.7447 2.71654 8.7447C1.46372 8.73941 0.857147 8.07275 0.857147 6.77381C0.857147 5.57541 1.46372 4.87436 2.75056 4.87436C3.07085 4.87436 3.46484 4.90875 3.68025 5.00663L3.64341 5.80821Z" fill="#03499A"/>
<path d="M6.78396 7.10715L7.67681 8.63888H6.39281L5.78624 7.33995H5.35824V8.63888H4.24997V4.90875H5.78624C6.85766 4.90875 7.42738 5.30822 7.42738 6.10716C7.39053 6.60715 7.17795 6.97487 6.78396 7.10715ZM5.82025 5.74208H5.39225V6.6098H5.82025C6.14054 6.6098 6.2851 6.50927 6.2851 6.17594C6.24825 5.80822 6.14054 5.74208 5.82025 5.74208Z" fill="#03499A"/>
<path d="M10.891 7.77381V8.64153H8.07077V4.90875H10.8202V5.77382H9.14219V6.33996H10.4971V7.10715H9.14219V7.77381H10.891Z" fill="#03499A"/>
<path d="M13.0339 8.64153H11.4636V4.90875H13.0339C14.3179 4.90875 14.8904 5.47489 14.8904 6.77382C14.8536 8.07275 14.247 8.64153 13.0339 8.64153ZM13.0339 5.77382H12.569V7.73942H13.0339C13.5327 7.73942 13.7482 7.60714 13.7482 6.73943C13.6745 5.94049 13.5327 5.77382 13.0339 5.77382Z" fill="#03499A"/>
<path d="M16.6762 4.90875H15.497V8.64153H16.6762V4.90875Z" fill="#03499A"/>
<path d="M18.5327 8.67328C18.0678 8.67328 17.603 8.57275 17.2827 8.40609L17.4244 7.53837C17.7815 7.70504 18.1755 7.80557 18.5327 7.80557C18.8898 7.80557 19.0315 7.70504 19.0315 7.50663C19.0315 7.04102 17.2458 7.23943 17.2458 5.97489C17.2458 5.30823 17.7107 4.77649 18.7821 4.77649C19.2101 4.77649 19.6041 4.87702 19.9612 4.94315L19.8195 5.77648C19.4992 5.67595 19.1052 5.64421 18.8558 5.64421C18.4278 5.64421 18.3569 5.77648 18.3569 5.9114C18.3569 6.37701 20.1426 6.17859 20.1426 7.44313C20.0661 8.23942 19.4964 8.67328 18.5327 8.67328Z" fill="#03499A"/>
<path d="M21.7811 4.90875H20.602V8.64153H21.7811V4.90875Z" fill="#03499A"/>
<path d="M23.7453 4.90875L24.5305 6.80821L24.6722 7.20768L24.8167 6.80821L25.6019 4.90875H26.815V8.64153H25.7805V7.0754V6.67329L25.6359 7.0754L24.9953 8.67327H24.2442L23.6008 7.0754L23.459 6.67329V7.0754V8.67327H22.4953V4.9405L23.7453 4.90875Z" fill="#03499A"/>
<path d="M29.8848 7.97486H28.6348L28.4562 8.64153H27.2771L28.6348 4.90875H29.9925L31.3502 8.64153H30.1002L29.8848 7.97486ZM29.1365 6.10716L28.8502 7.14154H29.6353L29.349 6.10716L29.2413 5.70769L29.1365 6.10716Z" fill="#03499A"/>
<path d="M34.2413 8.64153L32.8865 6.90874L32.637 6.57541V6.97488V8.64153H31.6733V4.84262H32.603L34.0316 6.80821V6.40875V4.87701H34.9953V8.60714C35.0265 8.64153 34.2413 8.64153 34.2413 8.64153Z" fill="#03499A"/>
<path d="M57.5234 12.0727L42.8126 10.9405C42.3478 10.9061 41.9906 10.5066 42.0275 10.0727L42.7418 1.90879C42.7786 1.47493 43.2066 1.1416 43.6715 1.17599L58.3822 2.30826C58.8471 2.34265 59.2042 2.74212 59.1674 3.17598L58.4531 11.3399C58.4162 11.8055 58.0223 12.1071 57.5234 12.0727Z" fill="#221F1F"/>
<path d="M58.4501 11.3743L59.1643 3.21037C59.2012 2.77651 58.8441 2.37704 58.3792 2.34265L43.6684 1.21039C43.2036 1.176 42.7756 1.50933 42.7387 1.94319L47.7019 7.54102L58.4501 11.3743Z" fill="#414141"/>
<path d="M43.6318 1.20773L58.3426 2.34C58.8074 2.37439 59.1646 2.77386 59.1277 3.20772" fill="#59595C"/>
<path d="M44.5246 7.20768H44.7031V6.97488H44.4169L44.4537 6.57541L44.774 6.6098H44.8109V6.64419V6.67858H44.774H44.5246V6.91139H44.7031C44.74 6.91139 44.74 6.91138 44.74 6.94578C44.74 6.94578 44.7768 6.98017 44.74 6.98017V7.21297C44.74 7.24736 44.74 7.24736 44.7031 7.24736C44.7031 7.24736 44.6663 7.28175 44.6663 7.24736L44.5246 7.20768L44.4877 7.24207L44.4509 7.20768L44.414 7.17329V7.1389H44.4509H44.4877L44.5246 7.20768Z" fill="white"/>
<path d="M45.0603 7.24206L45.0971 6.70767C45.0971 6.67328 45.0971 6.67328 45.134 6.67328H45.1708H45.4571C45.4939 6.67328 45.4939 6.67328 45.4939 6.70767V6.74206L45.4571 7.27645C45.4571 7.31084 45.4571 7.31084 45.4202 7.31084H45.3834H45.0971C45.0603 7.30819 45.0603 7.30819 45.0603 7.24206ZM45.4543 6.77381H45.168L45.1311 7.23941H45.4174L45.4543 6.77381Z" fill="white"/>
<path d="M46.0976 7.40872L45.6696 7.37432L45.7065 7.07538C45.7065 7.04099 45.7065 7.04099 45.7433 7.04099C45.7433 7.04099 45.7802 7.0066 45.7802 7.04099H46.0665V6.80819L45.7462 6.7738H45.7093V6.73941V6.70502H45.7462L46.0665 6.73941C46.1033 6.73941 46.1033 6.73941 46.1033 6.7738C46.1033 6.7738 46.1402 6.80819 46.1033 6.80819V7.04099C46.1033 7.07538 46.1033 7.07538 46.0665 7.07538H46.0296H45.7433V7.30819L46.0636 7.34258H46.1005V7.37697C46.1685 7.37432 46.1685 7.37432 46.0976 7.40872C46.1685 7.40872 46.1685 7.40872 46.0976 7.40872Z" fill="white"/>
<path d="M46.3811 7.33993L46.4179 6.80554C46.4179 6.77115 46.4179 6.77115 46.4548 6.77115H46.4916H46.7751C46.8119 6.77115 46.8119 6.77115 46.8119 6.80554V6.83993L46.7751 7.37432C46.7751 7.40871 46.7751 7.40871 46.7382 7.40871H46.7014H46.4151C46.3811 7.40871 46.3811 7.40871 46.3811 7.33993C46.3811 7.37432 46.3811 7.37432 46.3811 7.33993ZM46.8091 6.83993H46.5228L46.4859 7.30554H46.7751L46.8091 6.83993Z" fill="white"/>
<path d="M47.7757 7.47485H47.9174L47.9542 7.00924H47.8125H47.7757V6.97485V6.94046H47.8125H48.0619L48.0251 7.50659H48.1328V7.33993V7.30554H48.1696H48.2065V7.33993V7.57273V7.60712H48.1696L47.8125 7.57273H47.7757V7.53834C47.7388 7.47485 47.7388 7.47485 47.7757 7.47485Z" fill="white"/>
<path d="M48.4531 7.50661L48.4899 6.97223C48.4899 6.93784 48.4899 6.93784 48.5268 6.93784H48.5636H48.8499C48.8868 6.93784 48.8868 6.93784 48.8868 6.97223V7.00662L48.8499 7.54101C48.8499 7.5754 48.8499 7.5754 48.8131 7.5754H48.7762H48.4899C48.4531 7.5754 48.4531 7.5754 48.4531 7.50661ZM48.8102 7.04101H48.524L48.4871 7.50661H48.7734L48.8102 7.04101Z" fill="white"/>
<path d="M49.1307 7.54098H49.2724L49.3093 7.07537H49.1676H49.1307V7.04098V7.00659H49.1676H49.417L49.3801 7.57273H49.4878V7.40606V7.37167H49.5247H49.5615V7.40606V7.63886V7.67325H49.5247L49.1676 7.63886H49.1307V7.60447C49.0967 7.60712 49.0967 7.54098 49.1307 7.54098C49.1307 7.54098 49.0967 7.54098 49.1307 7.54098Z" fill="white"/>
<path d="M50.168 7.70767L49.74 7.67327L49.7768 7.37433C49.7768 7.33994 49.7768 7.33994 49.8137 7.33994C49.8137 7.33994 49.8505 7.30555 49.8505 7.33994H50.1368V7.10714L49.8165 7.07275H49.7796V7.03836V7.00397H49.8165L50.1368 7.03836C50.1736 7.03836 50.1736 7.03836 50.1736 7.07275C50.1736 7.07275 50.2105 7.10714 50.1736 7.10714V7.33994C50.1736 7.37433 50.1736 7.37433 50.1368 7.37433H50.0999H49.8137V7.60714L50.1339 7.64153H50.1708V7.67592C50.202 7.67327 50.202 7.67327 50.168 7.70767C50.202 7.70767 50.168 7.70767 50.168 7.70767Z" fill="white"/>
<path d="M51.0949 7.70766L51.1318 7.17328C51.1318 7.13889 51.1318 7.13889 51.1686 7.13889H51.2055H51.4918C51.4918 7.13889 51.5286 7.13889 51.5286 7.17328V7.20767L51.4918 7.74206C51.4918 7.77645 51.4918 7.77645 51.4549 7.77645H51.4181H51.1318C51.0949 7.7738 51.0949 7.7738 51.0949 7.70766C51.1318 7.7738 51.0949 7.70766 51.0949 7.70766ZM51.5229 7.24206H51.2367L51.1998 7.70766H51.4861L51.5229 7.24206Z" fill="white"/>
<path d="M51.7722 7.7738L51.809 7.23941C51.809 7.20502 51.809 7.20502 51.8459 7.20502H51.8827H52.169C52.2059 7.20502 52.2059 7.20502 52.2059 7.23941V7.2738L52.169 7.80819C52.169 7.84258 52.169 7.84258 52.1322 7.84258H52.0953H51.809C51.7722 7.83993 51.7722 7.83993 51.7722 7.7738C51.7722 7.80819 51.7722 7.7738 51.7722 7.7738ZM52.203 7.2738H51.9167L51.8799 7.7394H52.1662L52.203 7.2738Z" fill="white"/>
<path d="M52.4524 7.80819L52.4892 7.2738C52.4892 7.23941 52.4892 7.23941 52.5261 7.23941H52.5629H52.8492C52.8492 7.23941 52.886 7.23941 52.886 7.2738V7.30819L52.8492 7.84258C52.8492 7.87697 52.8492 7.87697 52.8123 7.87697H52.7755H52.4892C52.4524 7.87433 52.4524 7.87433 52.4524 7.80819ZM52.8435 7.33994H52.5572L52.5204 7.80554H52.8067L52.8435 7.33994Z" fill="white"/>
<path d="M53.3085 7.83997H53.4871V7.60717H53.2008L53.2376 7.2077L53.5579 7.24209H53.5948V7.27649V7.31088H53.5579H53.3085V7.54368H53.4871C53.5239 7.54368 53.5239 7.54368 53.5239 7.57807C53.5239 7.57807 53.5608 7.61246 53.5239 7.61246V7.84526C53.5239 7.87965 53.5239 7.87966 53.4871 7.87966C53.4871 7.87966 53.4502 7.91405 53.4502 7.87966H53.2716H53.2348L53.198 7.84526L53.1611 7.81087V7.77648H53.198H53.2348L53.3085 7.83997C53.2745 7.83997 53.2745 7.83997 53.3085 7.83997Z" fill="white"/>
<path d="M54.9865 7.50662V7.67328C54.9865 7.70767 54.9865 7.77381 54.9496 7.77381C54.9496 7.8082 54.9865 7.8082 54.9865 7.87434V8.04101C54.9865 8.0754 54.9865 8.0754 54.9496 8.0754H54.9128L54.5925 8.04101H54.5556V8.00661V7.97222H54.5925L54.9128 8.00661V7.83995V7.80556H54.8759H54.6974H54.6605V7.77117V7.73677H54.6974H54.8759H54.9128V7.70767V7.54101L54.5925 7.50662H54.5556V7.47223V7.43784H54.5925L54.9128 7.53836C54.9496 7.53836 54.9496 7.53836 54.9496 7.57276C54.9865 7.47487 54.9865 7.47487 54.9865 7.50662Z" fill="white"/>
<path d="M55.6669 7.54101V7.70768C55.6669 7.74207 55.6669 7.80821 55.63 7.80821C55.63 7.8426 55.6669 7.8426 55.6669 7.90873V8.0754C55.6669 8.10979 55.6669 8.10979 55.63 8.10979H55.5932L55.236 8.0754H55.1992V8.04101V8.00662H55.236L55.5563 8.04101V7.87434V7.83995H55.5195H55.3409H55.3041V7.80556V7.77117H55.3409H55.5195H55.5563V7.73678V7.5754L55.236 7.54101H55.1992V7.50662V7.47223H55.236L55.5563 7.50662C55.5932 7.50662 55.5932 7.50662 55.5932 7.54101C55.6669 7.50662 55.6669 7.54101 55.6669 7.54101Z" fill="white"/>
<path d="M55.8454 8.07275L55.8823 7.53836C55.8823 7.50397 55.8823 7.50397 55.9191 7.50397H55.956H56.2422C56.2422 7.50397 56.2791 7.50397 56.2791 7.53836V7.57275L56.2422 8.10714C56.2422 8.14153 56.2423 8.14153 56.2054 8.14153H56.1686H55.8823C55.8454 8.14153 55.8454 8.14153 55.8454 8.07275ZM56.2734 7.60714H55.9872L55.9503 8.07275H56.2366L56.2734 7.60714Z" fill="white"/>
<path d="M56.4858 8.10717L56.5227 7.57278C56.5227 7.53839 56.5227 7.53839 56.5595 7.53839H56.5964H56.8826C56.8826 7.53839 56.9195 7.53839 56.9195 7.57278V7.60717L56.8826 8.14156C56.8826 8.17595 56.8826 8.17595 56.8458 8.17595H56.8089H56.5227C56.4858 8.17331 56.4858 8.17331 56.4858 8.10717C56.4858 8.14156 56.4858 8.14156 56.4858 8.10717ZM56.9166 7.64157H56.6304L56.5935 8.10717H56.8798L56.9166 7.64157Z" fill="white"/>
<path d="M51.4152 5.07544C51.4152 5.07544 51.3783 5.07544 51.3075 5.04105C51.1998 5.04105 51.1657 5.07544 51.1657 5.17333C51.1657 5.3056 51.2026 5.33999 51.3075 5.33999H51.4152V5.37438H51.3103C51.2026 5.37438 51.1686 5.27385 51.1686 5.14158C51.1686 5.00931 51.2054 4.97491 51.3471 4.97491C51.3812 4.97491 51.3812 5.04105 51.4152 5.07544Z" fill="white"/>
<path d="M51.6675 5.2421L51.7752 5.40877H51.7383L51.6675 5.2421H51.5257V5.40877H51.4889L51.5257 5.07544H51.6675C51.7752 5.07544 51.7752 5.10983 51.7752 5.17597C51.7015 5.20771 51.7015 5.2421 51.6675 5.2421ZM51.5938 5.07544H51.4861V5.20771H51.5938C51.6306 5.20771 51.7015 5.20771 51.7015 5.10719C51.7015 5.07544 51.6675 5.07544 51.5938 5.07544Z" fill="white"/>
<path d="M52.0245 5.40877H51.7722L51.809 5.07544H52.0585V5.10719H51.8799V5.2421H52.0585V5.27385H51.8799V5.40877H52.0245Z" fill="white"/>
<path d="M52.2739 5.4749H52.1322L52.169 5.14157H52.3108C52.4185 5.14157 52.4525 5.17596 52.4525 5.30823C52.3816 5.40876 52.3448 5.4749 52.2739 5.4749ZM52.2739 5.10718H52.1662L52.1294 5.40612H52.2371C52.3448 5.40612 52.3788 5.37173 52.3788 5.27384C52.3816 5.17596 52.3448 5.10718 52.2739 5.10718Z" fill="white"/>
<path d="M52.5234 5.10718V5.44051H52.4865L52.5234 5.10718Z" fill="white"/>
<path d="M52.7388 5.50661C52.7019 5.50661 52.6311 5.50661 52.6311 5.47222V5.40608C52.6651 5.47486 52.7388 5.47486 52.7388 5.50661C52.7756 5.47222 52.8465 5.47222 52.8465 5.40608C52.8465 5.30555 52.6679 5.30555 52.6679 5.23941C52.6679 5.20502 52.7048 5.13889 52.8096 5.13889C52.8465 5.13889 52.9174 5.13889 52.9174 5.17328V5.20767C52.8805 5.20767 52.8805 5.17328 52.8096 5.17328C52.7728 5.17328 52.7019 5.20767 52.7019 5.20767C52.7019 5.3082 52.8805 5.24206 52.8805 5.37433C52.8437 5.47486 52.8096 5.50661 52.7388 5.50661Z" fill="white"/>
<path d="M52.9882 5.17331V5.50664H52.9514L52.9882 5.17331Z" fill="white"/>
<path d="M53.2008 5.17331L53.3085 5.47489V5.50664V5.47489L53.4531 5.2077H53.4871L53.4531 5.54103H53.4162L53.4531 5.27384V5.24209V5.27384L53.3085 5.54103H53.2745L53.1668 5.24209V5.2077V5.24209L53.1299 5.50664H53.0959L53.2008 5.17331Z" fill="white"/>
<path d="M53.8103 5.47493H53.6318L53.5949 5.57546H53.5581L53.7366 5.24213H53.7735L53.9152 5.64159H53.8784L53.8103 5.47493ZM53.7026 5.24213L53.5949 5.40879H53.7735L53.7026 5.24213Z" fill="white"/>
<path d="M54.2013 5.6072L54.0227 5.30826V5.27387V5.30826L53.9887 5.57546H53.9519L53.9887 5.24213H54.0227L54.2013 5.54107V5.57546V5.54107V5.27387H54.2382L54.2013 5.6072Z" fill="white"/>
<path d="M54.6295 5.64159H54.4878L54.5246 5.30826H54.6663C54.774 5.30826 54.8081 5.34265 54.8081 5.47492C54.8081 5.6072 54.7372 5.64159 54.6295 5.64159ZM54.6663 5.27386H54.5586L54.5218 5.5728H54.6295C54.7372 5.5728 54.7712 5.53841 54.7712 5.44053C54.7712 5.34265 54.774 5.27386 54.6663 5.27386Z" fill="white"/>
<path d="M54.9157 5.27386V5.6072H54.8789L54.9157 5.27386Z" fill="white"/>
<path d="M55.2727 5.60722H55.0942L55.0573 5.70775H55.0205L55.199 5.37442H55.2359L55.3776 5.77389H55.3408L55.2727 5.60722ZM55.2019 5.37442L55.0942 5.54109H55.2727L55.2019 5.37442Z" fill="white"/>
<path d="M55.4514 5.34L55.5591 5.64158V5.67333V5.64158L55.7009 5.37439H55.7377L55.7009 5.70772H55.6668L55.7009 5.44052V5.40878V5.44052L55.5591 5.70772H55.5223L55.4146 5.40878V5.37439V5.40878L55.3806 5.67333H55.3437L55.4514 5.34Z" fill="white"/>
<path d="M56.1287 5.64155H55.9501L55.9133 5.74208H55.8764L56.055 5.40875H56.0919L56.2336 5.80822H56.1967L56.1287 5.64155ZM56.0238 5.40875L55.9161 5.57542H56.0947L56.0238 5.40875Z" fill="white"/>
<path d="M56.486 5.77389L56.3074 5.47495V5.40881V5.44056L56.2734 5.70775H56.2365L56.2734 5.37442H56.3074L56.486 5.67336V5.74214V5.70775V5.40881H56.5228L56.486 5.77389Z" fill="white"/>
<path d="M56.7723 5.47489L56.7355 5.80822H56.6646L56.7723 5.47489H56.6306V5.40875H56.914V5.4405H56.7723V5.47489Z" fill="white"/>
<path d="M57.2001 5.80821H56.9507L56.9875 5.47488H57.2369V5.50928H57.0584V5.64155H57.2369V5.67594H57.0584V5.80821H57.2001Z" fill="white"/>
<path d="M47.8805 8.37434H47.7387V8.14154H47.8805H47.7387V8.23942H47.8464H47.7387V8.33995L47.8805 8.37434Z" fill="white"/>
<path d="M48.0251 8.27381L48.0592 8.40609H48.0251V8.27381L47.9174 8.40609H47.8806L48.0251 8.27381L47.9174 8.14154H47.9543L48.0251 8.27381L48.0592 8.17329H48.096L48.0251 8.27381Z" fill="white"/>
<path d="M48.2038 8.33994H48.167V8.40608V8.17328H48.2747C48.3115 8.17328 48.3824 8.20767 48.3824 8.27381C48.3115 8.27381 48.2378 8.33994 48.2038 8.33994ZM48.2038 8.20767H48.167V8.3082H48.2038C48.2407 8.3082 48.2407 8.3082 48.2407 8.27381C48.3115 8.20767 48.2378 8.20767 48.2038 8.20767Z" fill="white"/>
<path d="M48.524 8.33994L48.5608 8.44047H48.524V8.33994H48.4531V8.40608V8.17328H48.5608C48.5977 8.17328 48.5976 8.20767 48.5976 8.27381C48.5948 8.27381 48.5948 8.33994 48.524 8.33994ZM48.524 8.23942H48.4871V8.33994H48.524C48.5608 8.33994 48.5608 8.33994 48.5608 8.30555C48.5948 8.23942 48.5948 8.23942 48.524 8.23942Z" fill="white"/>
<path d="M48.7734 8.37434H48.6657L48.6289 8.40874L48.7366 8.17593H48.7734L48.8811 8.40874H48.8103L48.7734 8.37434ZM48.7026 8.23943L48.6657 8.33995H48.7734L48.7026 8.23943Z" fill="white"/>
<path d="M49.0964 8.64153H49.275V8.74206H48.9887V8.70767L49.0256 8.67328C49.1333 8.57275 49.2042 8.44047 49.2042 8.37434C49.2042 8.33994 49.2042 8.27381 49.1673 8.27381C49.1305 8.27381 49.1305 8.27381 49.0596 8.3082V8.20767C49.0964 8.17328 49.1673 8.17328 49.2013 8.17328C49.309 8.17328 49.343 8.20767 49.343 8.30555C49.275 8.40608 49.1673 8.541 49.0964 8.64153Z" fill="white"/>
<path d="M49.4536 8.7738C49.3459 8.7738 49.3119 8.67328 49.3459 8.47487C49.3459 8.24206 49.3827 8.20767 49.5245 8.20767C49.6322 8.20767 49.6662 8.3082 49.6662 8.50661C49.5953 8.70767 49.5585 8.7738 49.4536 8.7738ZM49.5245 8.27381C49.4876 8.27381 49.4876 8.27381 49.4168 8.44047C49.4168 8.60714 49.4167 8.67328 49.4536 8.67328C49.4904 8.67328 49.4904 8.67328 49.5613 8.44047C49.5585 8.27381 49.5585 8.27381 49.5245 8.27381Z" fill="white"/>
<path d="M49.7739 8.6733H49.9525V8.77383H49.6662V8.73943L49.7031 8.70504C49.8108 8.60452 49.8816 8.47224 49.8816 8.4061C49.8816 8.37171 49.8816 8.30558 49.8448 8.30558C49.808 8.30558 49.808 8.30558 49.7371 8.33997V8.23944C49.7739 8.20505 49.8448 8.20505 49.8788 8.20505C49.9865 8.20505 50.0205 8.23944 50.0205 8.33732C49.9894 8.47489 49.8816 8.60716 49.7739 8.6733Z" fill="white"/>
<path d="M50.1311 8.80823C50.0234 8.80823 49.9894 8.7077 50.0234 8.50929C50.0234 8.27649 50.0602 8.2421 50.2019 8.2421C50.3097 8.2421 50.3437 8.34262 50.3437 8.54104C50.2388 8.77384 50.2019 8.80823 50.1311 8.80823ZM50.1679 8.33998C50.1311 8.33998 50.1311 8.33998 50.0602 8.50664C50.0602 8.67331 50.0602 8.73945 50.0971 8.73945C50.1339 8.73945 50.1339 8.73945 50.2048 8.50664C50.2019 8.37437 50.2019 8.33998 50.1679 8.33998Z" fill="white"/>
<path d="M44.4906 9.64153H44.3489L44.312 9.7738H44.2043L44.3829 9.20767H44.4906L44.5983 9.8082H44.4906V9.64153ZM44.3829 9.27381L44.346 9.541H44.4537L44.3829 9.27381Z" fill="white"/>
<path d="M44.8477 9.70767V9.8082H44.5954L44.6323 9.20767H44.74L44.7031 9.73941L44.8477 9.70767Z" fill="white"/>
<path d="M45.1312 9.6733H44.9895L44.9527 9.80557H44.8449L45.0235 9.23944H45.1312L45.2389 9.83996H45.1312V9.6733ZM45.0972 9.33997L45.0604 9.60716H45.1681L45.0972 9.33997Z" fill="white"/>
<path d="M45.5619 9.83996L45.4173 9.50663V9.47489V9.50663L45.3833 9.83996H45.2756L45.3096 9.23944H45.4173L45.525 9.57277V9.60716V9.57277L45.5619 9.23944H45.6668L45.6327 9.83996H45.5619Z" fill="white"/>
<path d="M45.9193 9.77379H45.7776L45.7407 9.90607H45.633L45.8116 9.33994H45.9193L46.027 9.94046H45.9193V9.77379ZM45.8825 9.40607L45.8456 9.67327H45.9533L45.8825 9.40607Z" fill="white"/>
<path d="M46.5258 9.90608C46.489 9.90608 46.4181 9.94047 46.3841 9.90608C46.2424 9.90608 46.2055 9.80555 46.2055 9.60714C46.2055 9.37433 46.3132 9.3082 46.455 9.3082C46.4918 9.3082 46.5627 9.3082 46.5627 9.34259V9.40873C46.5258 9.40873 46.5258 9.37433 46.455 9.37433C46.3473 9.37433 46.3473 9.40873 46.3132 9.60714C46.3132 9.7738 46.3132 9.83994 46.421 9.83994H46.4578V9.60714H46.5655L46.5258 9.90608Z" fill="white"/>
<path d="M46.8461 9.80819H46.7043L46.6675 9.94046H46.5598L46.7384 9.37433H46.8461L46.9538 9.97485H46.8461V9.80819ZM46.8092 9.47486L46.7752 9.73941H46.8829L46.8092 9.47486V9.40872V9.47486Z" fill="white"/>
<path d="M47.24 9.70766L47.3477 9.97485H47.24L47.2031 9.70766H47.1663V9.97485H47.0586L47.0954 9.37433H47.2371C47.3448 9.37433 47.3789 9.40872 47.3789 9.54099C47.3108 9.64152 47.274 9.67327 47.24 9.70766ZM47.1663 9.47486H47.1294V9.64152H47.1663C47.2031 9.64152 47.2031 9.64152 47.274 9.54099C47.24 9.5066 47.24 9.47486 47.1663 9.47486Z" fill="white"/>
<path d="M47.631 9.50659C47.631 9.50659 47.5942 9.50659 47.5233 9.4722C47.4156 9.4722 47.4156 9.50659 47.3816 9.705C47.3816 9.87167 47.3816 9.9378 47.4893 9.9378H47.597V10.0383H47.4893C47.3476 10.0383 47.3107 9.9378 47.3476 9.73939C47.3447 9.50659 47.4524 9.44045 47.631 9.50659C47.631 9.4722 47.631 9.4722 47.7019 9.50659H47.631Z" fill="white"/>
<path d="M47.739 9.40607H47.8467L47.8098 10.0066H47.7021L47.739 9.40607ZM47.8807 9.33994L47.773 9.44046H47.7361L47.773 9.33994H47.8807Z" fill="white"/>
<path d="M48.1327 9.90606H47.991L47.9541 10.0383H47.8464L48.025 9.4722H48.1327L48.2404 10.0727H48.1327V9.90606ZM48.025 9.60712L47.9881 9.87431H48.0958L48.025 9.60712Z" fill="white"/>
<path d="M53.4887 3.70681L53.4101 4.6033L53.5881 4.61689L53.6666 3.72039L53.4887 3.70681Z" fill="white"/>
<path d="M55.0575 3.90876C55.0206 3.87437 54.9157 3.80823 54.808 3.77649H54.6295C54.5926 3.77649 54.5218 3.81088 54.4877 3.87702C54.4509 3.84262 54.4509 3.77649 54.38 3.77649C54.3432 3.7421 54.2723 3.7421 54.2383 3.7421H54.0966C54.0597 3.7421 54.0597 3.7421 53.9889 3.77649V3.7421H53.8103L53.7026 4.60981H53.8812L53.918 4.00929C53.918 3.9749 53.9549 3.90876 54.0257 3.87702C54.0626 3.84262 54.1334 3.84262 54.1675 3.84262C54.2043 3.84262 54.2752 3.87702 54.3092 3.87702C54.346 3.91141 54.346 3.97754 54.346 4.00929L54.3092 4.60981H54.4877L54.5246 4.00929C54.5246 3.9749 54.5614 3.90876 54.5614 3.87702C54.5983 3.84262 54.6692 3.84262 54.7032 3.84262C54.74 3.84262 54.8109 3.87702 54.8449 3.87702C54.8817 3.91141 54.8817 3.97754 54.8817 4.00929L54.8449 4.60981H55.0235L55.0603 4.00929C55.1312 4.04104 55.0943 3.94051 55.0575 3.90876Z" fill="white"/>
<path d="M56.1287 4.64155C56.1287 4.64155 56.0918 4.60716 56.1287 4.60716L56.1655 4.1733C56.1655 4.07277 56.1287 4.04102 56.0578 3.94049C56.021 3.9061 55.9161 3.83997 55.8084 3.83997C55.7007 3.83997 55.6298 3.83997 55.5221 3.87436C55.4144 3.90875 55.3804 3.97489 55.3804 4.04102V4.14155H55.559V4.10716C55.559 4.07277 55.5958 4.00663 55.6667 4.00663C55.7035 3.97224 55.7744 3.97224 55.8084 3.97224C55.8452 3.97224 55.9161 4.00663 55.9501 4.00663C55.987 4.04102 55.987 4.10716 55.987 4.13891C55.987 4.1733 55.9501 4.1733 55.8792 4.23943H55.7007C55.593 4.23943 55.5221 4.23943 55.4144 4.27382C55.3067 4.30822 55.2727 4.4061 55.2727 4.44049C55.2727 4.54102 55.2727 4.57276 55.3804 4.67329C55.4172 4.70768 55.5221 4.77382 55.6298 4.77382H55.8084C55.8452 4.77382 55.9161 4.73943 55.9501 4.67329C55.9501 4.70768 55.987 4.70768 55.987 4.77382C56.0238 4.80821 56.0947 4.80821 56.0947 4.80821H56.2024V4.67594C56.1287 4.67594 56.1287 4.64155 56.1287 4.64155ZM55.8792 4.47488C55.8792 4.50927 55.8424 4.57541 55.7715 4.60716C55.7347 4.64155 55.6298 4.64155 55.593 4.64155C55.5561 4.64155 55.4853 4.64155 55.4512 4.60716C55.4144 4.57276 55.4144 4.57276 55.4144 4.50663C55.4144 4.44049 55.4512 4.4061 55.4512 4.4061C55.4881 4.4061 55.559 4.37171 55.593 4.37171H55.6298C55.7375 4.37171 55.8084 4.37171 55.8792 4.33732V4.47488Z" fill="white"/>
<path d="M57.1293 4.07545C57.0216 3.97492 56.9876 3.94318 56.843 3.94318H56.6645C56.6276 3.94318 56.5568 3.97757 56.5568 3.97757V3.94318H56.3782L56.2705 4.81089H56.449L56.4859 4.24476C56.4859 4.21037 56.5227 4.14423 56.5936 4.11249C56.6305 4.0781 56.7013 4.0781 56.7722 4.0781C56.809 4.0781 56.9139 4.11249 56.9507 4.17862C56.9876 4.21302 56.9876 4.27915 56.9876 4.3109L56.9507 4.87703H57.1293L57.1662 4.3109C57.237 4.24212 57.2002 4.17598 57.1293 4.07545Z" fill="white"/>
<path d="M53.1299 4.1072C53.0931 4.07281 52.9882 4.00667 52.8805 4.00667C52.7728 4.00667 52.7388 3.97228 52.7019 3.97228C52.6651 3.93789 52.6651 3.93789 52.6651 3.87175C52.6651 3.80561 52.6651 3.83736 52.7019 3.77122C52.7388 3.77122 52.8096 3.73683 52.8436 3.77122C52.8805 3.77122 52.9514 3.80561 52.9854 3.80561C53.0222 3.84 53.0222 3.84 53.0222 3.90614L53.2008 3.87175C53.2008 3.83736 53.1639 3.77122 53.0931 3.73947C53.0562 3.70508 52.9514 3.63895 52.8068 3.63895C52.6991 3.63895 52.6282 3.63895 52.5205 3.67334C52.4128 3.70773 52.4128 3.77387 52.4128 3.84C52.4128 3.94053 52.4128 3.97228 52.5205 4.00667C52.5574 4.04106 52.6622 4.1072 52.7699 4.1072C52.8777 4.1072 52.9117 4.14159 52.9485 4.14159C52.9854 4.17598 53.0562 4.24212 53.0562 4.27386C53.0562 4.30825 53.0194 4.30825 53.0194 4.37439C52.9825 4.37439 52.9117 4.40878 52.8408 4.37439C52.804 4.37439 52.6991 4.34 52.6991 4.34C52.6622 4.30561 52.6622 4.23947 52.6622 4.20773L52.4837 4.24212C52.4837 4.27651 52.5205 4.37439 52.5914 4.40878C52.6991 4.50931 52.77 4.50931 52.8777 4.54106C52.9854 4.54106 53.1271 4.54106 53.1639 4.50666C53.2716 4.47227 53.3057 4.37439 53.3057 4.27386C53.2376 4.24212 53.2008 4.17598 53.1299 4.1072Z" fill="white"/>
<path d="M52.274 4.07541L51.7015 4.50927H51.6675L51.2026 3.97488V3.94049L51.7752 3.50928H51.8092L52.274 4.04102V4.07541Z" fill="#E6E6E6"/>
<path d="M52.2031 3.94053C51.8829 3.94053 51.4889 4.04106 51.2734 4.07281L51.1657 3.97228V3.93789L51.7383 3.50403H51.7751L52.2031 3.94053Z" fill="white"/>
<path d="M54.9866 14.1071L40.2758 12.7738C39.8109 12.7394 39.4906 12.3399 39.5247 11.906L40.4175 3.74209C40.4544 3.30823 40.8824 3.00929 41.3472 3.04103L56.058 4.37436C56.5228 4.40875 56.8431 4.80822 56.8091 5.24207L55.9163 13.406C55.8794 13.8055 55.4514 14.1388 54.9866 14.1071Z" fill="#808083"/>
<path d="M55.9162 13.3717L56.809 5.20771C56.8459 4.77385 56.5228 4.37438 56.0579 4.33999L41.3471 3.00667C40.8823 2.97227 40.4543 3.27386 40.4174 3.70772L45.3097 9.33995L55.9162 13.3717Z" fill="#919395"/>
<path d="M41.384 2.97495L56.0948 4.30827C56.5596 4.34266 56.8799 4.74213 56.8459 5.17599" fill="#A5A7AA"/>
<path d="M42.0984 9.04102H42.277V8.80822L41.9907 8.77383L42.0275 8.37436L42.3847 8.40875H42.4215V8.44314V8.47753H42.3847H42.1353V8.71034H42.3138C42.3507 8.71034 42.3507 8.71034 42.3507 8.74473V8.77912V9.01192C42.3507 9.04631 42.3507 9.04631 42.3138 9.04631H42.277H42.0984H42.0616L42.0247 9.01192C42.0247 9.01192 41.9879 8.97753 42.0247 8.97753V8.94314H42.0616H42.0984V9.04102Z" fill="white"/>
<path d="M42.634 9.07275L42.6709 8.53836C42.6709 8.50397 42.6708 8.50397 42.7077 8.50397H42.7445L43.0308 8.53836C43.0308 8.53836 43.0677 8.53836 43.0677 8.57275V8.60714L43.0308 9.14153C43.0308 9.17592 43.0308 9.17592 42.994 9.17592H42.9571L42.6709 9.14153C42.634 9.14153 42.634 9.14153 42.634 9.07275ZM43.0252 8.60714L42.7389 8.57275L42.702 9.03835L42.9883 9.07275L43.0252 8.60714Z" fill="white"/>
<path d="M43.7056 9.23945L43.2776 9.20505L43.3144 8.90612C43.3144 8.87172 43.3144 8.87172 43.3513 8.87172H43.3881L43.6744 8.90612V8.67331L43.3541 8.63892H43.3172V8.60718V8.57278H43.3541L43.6744 8.60718C43.7112 8.60718 43.7112 8.60718 43.7112 8.64157V8.67596V8.90876C43.7112 8.94315 43.7112 8.94315 43.6744 8.94315H43.6375L43.3513 8.90876V9.14156L43.6715 9.17595H43.7084V9.21035C43.7396 9.2077 43.7396 9.23945 43.7056 9.23945Z" fill="white"/>
<path d="M43.989 9.20766L44.0258 8.67328C44.0258 8.63889 44.0258 8.63889 44.0627 8.63889H44.0995L44.3858 8.67328C44.3858 8.67328 44.4227 8.67328 44.4227 8.70767V8.74206L44.3858 9.27645C44.3858 9.31084 44.3858 9.31084 44.349 9.31084H44.3121L44.0258 9.27645C43.989 9.2738 43.989 9.2738 43.989 9.20766ZM44.383 8.70767L44.0967 8.67328L44.0598 9.13888L44.3461 9.17327L44.383 8.70767Z" fill="white"/>
<path d="M45.3834 9.33999H45.5251L45.5619 8.87439H45.4202H45.3834V8.83999V8.8056H45.4202H45.6696L45.6328 9.37438H45.7405V9.20772V9.17333H45.7774H45.8142V9.20772V9.44052V9.47491H45.7774L45.4202 9.44052H45.3834V9.40613C45.3097 9.33999 45.3097 9.33999 45.3834 9.33999C45.3097 9.33999 45.3097 9.33999 45.3834 9.33999Z" fill="white"/>
<path d="M45.99 9.37438L46.0268 8.83999C46.0268 8.8056 46.0268 8.8056 46.0637 8.8056H46.1005L46.3868 8.83999C46.3868 8.83999 46.4236 8.83999 46.4236 8.87439V8.90878L46.3868 9.44316C46.3868 9.47755 46.3868 9.47755 46.3499 9.47755H46.3131L46.0268 9.44316C45.99 9.44052 45.99 9.44052 45.99 9.37438C45.99 9.40613 45.99 9.40613 45.99 9.37438ZM46.3811 8.90613L46.0948 8.87174L46.058 9.33734L46.3443 9.37174L46.3811 8.90613Z" fill="white"/>
<path d="M46.7042 9.47488H46.8459L46.8827 9.00927H46.741H46.7042V8.97488V8.94049H46.741H46.9904L46.9536 9.50662H47.0613V9.33996V9.30557H47.0982H47.135V9.33996V9.57276V9.60715H47.0982L46.741 9.57276H46.7042V9.53837C46.6333 9.47488 46.6673 9.47488 46.7042 9.47488C46.6673 9.47488 46.6673 9.4061 46.7042 9.47488Z" fill="white"/>
<path d="M47.739 9.64154L47.311 9.60714L47.3479 9.30821C47.3479 9.27381 47.3479 9.27381 47.3847 9.27381H47.4215L47.7078 9.30821V9.0754L47.3875 9.04101H47.3507V9.00662V8.97223H47.3875L47.7078 9.00662C47.7447 9.00662 47.7447 9.00662 47.7447 9.04101V9.0754V9.30821C47.7447 9.3426 47.7447 9.3426 47.7078 9.3426H47.671L47.3847 9.30821V9.54101L47.705 9.5754H47.7418V9.60979C47.7759 9.60714 47.7759 9.60714 47.739 9.64154Z" fill="white"/>
<path d="M48.6687 9.64153L48.7055 9.10714C48.7055 9.07275 48.7055 9.07275 48.7424 9.07275H48.7792L49.0655 9.10714C49.1023 9.10714 49.1023 9.10714 49.1023 9.14154V9.17593L49.0655 9.71031C49.0655 9.74471 49.0655 9.74471 49.0286 9.74471H48.9918L48.7055 9.71031C48.6687 9.70767 48.6687 9.70767 48.6687 9.64153ZM49.0967 9.14154L48.8104 9.10714L48.7735 9.57275L49.0598 9.60714L49.0967 9.14154Z" fill="white"/>
<path d="M49.3091 9.67327L49.3459 9.13888C49.3459 9.10449 49.3459 9.10449 49.3827 9.10449H49.4196L49.7399 9.13888C49.7399 9.13888 49.7767 9.13888 49.7767 9.17328V9.20767L49.7399 9.74205C49.7399 9.77644 49.7399 9.77644 49.703 9.77644H49.6662L49.3799 9.74205C49.3459 9.73941 49.3459 9.73941 49.3091 9.67327C49.3091 9.70766 49.3091 9.70766 49.3091 9.67327ZM49.7371 9.23941L49.4508 9.20502L49.4139 9.67063L49.7002 9.70502L49.7371 9.23941Z" fill="white"/>
<path d="M50.0234 9.77383L50.0603 9.23944C50.0603 9.20505 50.0603 9.20505 50.0971 9.20505H50.134L50.4202 9.23944C50.4202 9.23944 50.4571 9.23944 50.4571 9.27383V9.30822L50.4202 9.84261C50.4202 9.877 50.4202 9.877 50.3834 9.877H50.3465L50.0603 9.84261C50.0234 9.83996 50.0234 9.83996 50.0234 9.77383ZM50.4514 9.27383L50.1651 9.23944L50.1283 9.70504L50.4146 9.73943L50.4514 9.27383Z" fill="white"/>
<path d="M50.8454 9.80817H51.024V9.57537L50.7377 9.54098L50.7745 9.14151L51.0948 9.1759H51.1317V9.21029V9.24468H51.0948H50.8454V9.47749H51.024C51.0608 9.47749 51.0608 9.47749 51.0608 9.51188V9.54627V9.77907C51.0608 9.81346 51.0608 9.81346 51.024 9.81346H50.9871H50.8085H50.7717L50.7349 9.77907C50.7349 9.77907 50.698 9.74468 50.7349 9.74468V9.71029H50.7717H50.8085L50.8454 9.80817Z" fill="white"/>
<path d="M52.5233 9.47488V9.64155C52.5233 9.67594 52.5233 9.67594 52.4865 9.74208C52.4865 9.77647 52.5233 9.77647 52.5233 9.8426V10.0093C52.5233 10.0437 52.5233 10.0437 52.4865 10.0437H52.4496L52.1293 10.0093H52.0925V9.97488V9.94049H52.1293L52.4496 9.97488V9.80821V9.77382H52.4128H52.2342H52.1974V9.73943V9.70504H52.2342H52.4128H52.4496V9.67065V9.40346L52.1293 9.37435H52.0925V9.33996V9.30557H52.1293L52.4496 9.33996C52.4865 9.33996 52.4865 9.33996 52.4865 9.37435C52.4865 9.4061 52.5233 9.47488 52.5233 9.47488Z" fill="white"/>
<path d="M53.2377 9.54098V9.70765C53.2377 9.74204 53.2377 9.74204 53.2008 9.80817C53.2008 9.84257 53.2377 9.84257 53.2377 9.9087V10.0754C53.2377 10.1098 53.2377 10.1098 53.2008 10.1098H53.164L52.8437 10.0754H52.8069V10.041V10.0066H52.8437L53.164 10.041V9.87431V9.83992H53.1271H52.9486H52.9117V9.80553V9.77114H52.9486H53.1271H53.164C53.2008 9.77114 53.164 9.77114 53.164 9.73675V9.57008L52.8437 9.53569H52.8069V9.50659V9.4722H52.8437L53.164 9.50659C53.2008 9.50659 53.2008 9.50659 53.2008 9.54098C53.2377 9.50659 53.2377 9.50659 53.2377 9.54098Z" fill="white"/>
<path d="M53.3794 10.0728L53.4162 9.53839C53.4162 9.504 53.4162 9.504 53.4531 9.504H53.4899L53.7762 9.53839C53.813 9.53839 53.813 9.53839 53.813 9.57278V9.60717L53.7762 10.1416C53.7762 10.176 53.7762 10.1759 53.7393 10.1759H53.7025L53.4162 10.1416C53.3794 10.1416 53.3794 10.1416 53.3794 10.0728ZM53.8102 9.60717H53.5239L53.4531 10.0728L53.7393 10.1072L53.8102 9.60717Z" fill="white"/>
<path d="M54.0598 10.1071L54.0966 9.57275C54.0966 9.53836 54.0966 9.53836 54.1335 9.53836H54.1703L54.4566 9.57275C54.4566 9.57275 54.4935 9.57275 54.4935 9.60714V9.64153L54.4566 10.1759C54.4566 10.2103 54.4566 10.2103 54.4198 10.2103H54.3829L54.0966 10.1759C54.0598 10.1733 54.0598 10.1733 54.0598 10.1071C54.0598 10.1389 54.0598 10.1389 54.0598 10.1071ZM54.4878 9.67328L54.2015 9.63889L54.1647 10.1045L54.4509 10.1389L54.4878 9.67328Z" fill="white"/>
<path d="M49.0596 6.97486C49.0596 6.97486 49.0228 6.94047 48.9519 6.94047C48.8442 6.94047 48.8102 6.97486 48.8102 7.07274C48.8102 7.20501 48.8471 7.23941 48.9519 7.23941H49.0596V7.2738H48.9519C48.8102 7.2738 48.7734 7.17327 48.8102 7.04099C48.8102 6.90872 48.9179 6.87433 48.9888 6.87433C48.9888 6.94047 49.0596 6.94047 49.0596 6.97486Z" fill="white"/>
<path d="M49.2752 7.20769L49.3829 7.37435H49.3461L49.2752 7.20769H49.1335V7.37435H49.0966L49.1335 6.97488H49.2752C49.3829 6.97488 49.4169 7.00928 49.3829 7.10716C49.3801 7.1733 49.3092 7.17329 49.2752 7.20769ZM49.2752 6.97488H49.1675V7.14155H49.2752C49.3121 7.14155 49.3829 7.14155 49.3829 7.04102C49.3801 7.04102 49.3092 6.97488 49.2752 6.97488Z" fill="white"/>
<path d="M49.7373 7.37435H49.4538L49.4878 6.97488L49.7373 7.00663V7.07541H49.5247V7.20769H49.7033V7.24208H49.5247V7.40874L49.7373 7.37435Z" fill="white"/>
<path d="M49.9156 7.40875H49.7739L49.8107 7.00928H49.9525C50.0942 7.00928 50.131 7.10981 50.0942 7.24208C50.131 7.37435 50.0602 7.40875 49.9156 7.40875ZM49.9893 7.07541H49.8816L49.8448 7.37435H49.9525C50.0602 7.37435 50.0942 7.33996 50.0942 7.24208C50.131 7.10716 50.0602 7.07541 49.9893 7.07541Z" fill="white"/>
<path d="M50.2387 7.07541V7.47488H50.2019L50.2387 7.07541Z" fill="white"/>
<path d="M50.4883 7.47484C50.4514 7.47484 50.3806 7.47484 50.3806 7.44045V7.40606C50.3806 7.40871 50.4514 7.47484 50.4883 7.47484C50.596 7.40871 50.596 7.40871 50.596 7.37432C50.596 7.27379 50.4174 7.27379 50.4174 7.14151C50.4174 7.10712 50.4543 7.04099 50.5592 7.04099C50.596 7.04099 50.6669 7.04098 50.6669 7.07538V7.10977C50.63 7.10977 50.63 7.07538 50.5592 7.07538C50.5223 7.07538 50.4514 7.10977 50.4514 7.10977C50.4514 7.2103 50.7009 7.2103 50.63 7.34257C50.63 7.47484 50.596 7.50659 50.4883 7.47484Z" fill="white"/>
<path d="M50.7746 7.10715V7.50661H50.7378L50.7746 7.10715Z" fill="white"/>
<path d="M50.9532 7.10715L51.0609 7.40873V7.44048V7.40873L51.2394 7.10715H51.2734L51.2394 7.50661H51.2026L51.2394 7.20768V7.17328V7.20768L51.0949 7.50661H51.0609L50.9532 7.20768V7.17328V7.20768L50.9163 7.50661H50.8823L50.9532 7.10715Z" fill="white"/>
<path d="M51.5965 7.4749H51.418L51.3811 7.57543H51.3103L51.4888 7.17596H51.5257L51.6674 7.57543L51.5965 7.4749ZM51.5229 7.2421L51.4151 7.40877H51.5937L51.5229 7.2421Z" fill="white"/>
<path d="M52.0245 7.64156L51.8459 7.33998V7.30823V7.33998L51.809 7.64156H51.7722L51.809 7.2421H51.8459L52.0245 7.54104V7.57543V7.54104L52.0585 7.2421H52.0953L52.0245 7.64156Z" fill="white"/>
<path d="M52.5234 7.50664H52.4157V7.6733H52.3789L52.4157 7.27383H52.5574C52.6652 7.27383 52.6992 7.30823 52.6992 7.40611C52.6652 7.47489 52.6311 7.50664 52.5234 7.50664ZM52.5234 7.27383H52.4157V7.4405H52.5234C52.5603 7.4405 52.6311 7.4405 52.6311 7.33997C52.6311 7.33997 52.5943 7.27383 52.5234 7.27383Z" fill="white"/>
<path d="M52.9173 7.50664L53.025 7.6733H52.9882L52.9173 7.50664H52.7756V7.6733H52.7387L52.7756 7.27383H52.9173C53.025 7.27383 53.059 7.30823 53.025 7.40611C52.9882 7.50664 52.9513 7.50664 52.9173 7.50664ZM52.9173 7.33997H52.8096V7.50664H52.9173C52.9542 7.50664 53.025 7.50664 53.025 7.40611C52.9882 7.37436 52.9513 7.33997 52.9173 7.33997Z" fill="white"/>
<path d="M53.3085 7.7077H53.0222L53.059 7.30823L53.3085 7.33997V7.40876H53.0959V7.54103H53.2745V7.57542H53.0959V7.73944L53.3085 7.7077Z" fill="white"/>
<path d="M53.524 7.37436L53.6317 7.6733V7.70769V7.6733L53.8102 7.37436H53.8442L53.8102 7.77383H53.7734L53.8102 7.47489V7.40875V7.4405L53.6657 7.73944H53.6317L53.524 7.4405V7.37436V7.4405L53.4871 7.73944H53.4531L53.524 7.37436Z" fill="white"/>
<path d="M53.9887 7.40872V7.80819H53.9519L53.9887 7.40872Z" fill="white"/>
<path d="M54.3432 7.80819H54.0598L54.0938 7.40872L54.3432 7.44047V7.47486H54.0938V7.60713H54.2724V7.64152H54.0938V7.80819H54.3432Z" fill="white"/>
<path d="M54.6295 7.67332L54.7372 7.83999H54.7003L54.6295 7.67332H54.4877V7.83999H54.4509L54.4877 7.44052H54.6295C54.7372 7.44052 54.7712 7.47491 54.7372 7.5728C54.7372 7.64158 54.7372 7.67332 54.6295 7.67332ZM54.6295 7.50666H54.5218V7.67332H54.6295C54.6663 7.67332 54.7372 7.67332 54.7372 7.5728C54.7372 7.50666 54.6663 7.50666 54.6295 7.50666Z" fill="white"/>
<path d="M45.3835 10.2077H45.239L45.2758 9.97226H45.4176H45.2758V10.0728H45.3835H45.2758V10.1733L45.3835 10.2077Z" fill="white"/>
<path d="M45.525 10.1415L45.5618 10.2738H45.525V10.1415L45.4173 10.2394H45.3833L45.525 10.1415L45.4173 10.0066H45.4541L45.525 10.1415L45.6327 10.0066H45.6667L45.525 10.1415Z" fill="white"/>
<path d="M45.7407 10.2076H45.7038V10.3082L45.7407 10.0754H45.8484C45.8852 10.0754 45.9561 10.1098 45.9561 10.1759C45.7747 10.1389 45.7747 10.2076 45.7407 10.2076ZM45.7407 10.0727H45.7038V10.1733H45.7407C45.7775 10.1733 45.7775 10.1733 45.7775 10.1389C45.7747 10.0727 45.7747 10.0727 45.7407 10.0727Z" fill="white"/>
<path d="M46.0242 10.2077L46.061 10.3399H46.0242V10.2077H45.9165V10.3082L45.9533 10.0754H46.061C46.0979 10.0754 46.0979 10.1098 46.0979 10.1759C46.0979 10.1415 46.061 10.2077 46.0242 10.2077ZM46.0242 10.1071H45.9873V10.2077H46.0242C46.061 10.2077 46.061 10.2077 46.061 10.1733C46.061 10.1071 46.061 10.1071 46.0242 10.1071Z" fill="white"/>
<path d="M46.3103 10.2394H46.2026L46.1657 10.2738L46.2734 10.041H46.3103L46.3471 10.2738L46.3103 10.2394ZM46.2026 10.1072L46.1657 10.2077H46.2734L46.2026 10.1072Z" fill="white"/>
<path d="M46.5967 10.541H46.7753V10.6416L46.489 10.6072V10.5728L46.5258 10.5384C46.6335 10.4379 46.7044 10.3056 46.7044 10.2394C46.7044 10.2051 46.7044 10.1389 46.6676 10.1389C46.6307 10.1389 46.6307 10.1389 46.5598 10.1733V10.0728C46.5967 10.0384 46.6676 10.0384 46.7016 10.0384C46.8093 10.0384 46.8433 10.0728 46.8433 10.1707C46.7753 10.2738 46.7044 10.4061 46.5967 10.541Z" fill="white"/>
<path d="M46.9536 10.6389C46.8459 10.6389 46.8119 10.5383 46.8459 10.3399C46.8827 10.1389 46.8827 10.0727 47.0245 10.0727C47.1322 10.0727 47.1662 10.1733 47.1322 10.3717C47.0953 10.5727 47.0613 10.6732 46.9536 10.6389ZM46.9876 10.1415C46.9508 10.1415 46.9508 10.1415 46.8799 10.3082C46.8799 10.4748 46.8799 10.541 46.9168 10.541C46.9536 10.541 46.9536 10.541 47.0245 10.3082C47.0613 10.2076 47.0613 10.1415 46.9876 10.1415Z" fill="white"/>
<path d="M47.2739 10.5728H47.4525V10.6733L47.1662 10.6389V10.6045L47.2031 10.5701C47.3108 10.4696 47.3816 10.3373 47.3816 10.2712C47.3816 10.2368 47.3816 10.1707 47.3448 10.1707C47.3079 10.1707 47.308 10.1707 47.2371 10.205V10.1045C47.2739 10.0701 47.3448 10.0701 47.3788 10.0701C47.4865 10.0701 47.5205 10.1045 47.5205 10.2024C47.4525 10.3744 47.3816 10.4722 47.2739 10.5728Z" fill="white"/>
<path d="M47.5972 10.7076C47.4894 10.7076 47.4554 10.6071 47.4894 10.4087C47.5263 10.1759 47.5263 10.1415 47.668 10.1415C47.7757 10.1415 47.8097 10.242 47.7757 10.4404C47.7757 10.6733 47.702 10.7076 47.5972 10.7076ZM47.6312 10.2394C47.5943 10.2394 47.5943 10.2394 47.5235 10.4061C47.5235 10.5727 47.5235 10.6389 47.5603 10.6389C47.5972 10.6389 47.5972 10.6389 47.668 10.4061C47.7389 10.2394 47.702 10.2394 47.6312 10.2394Z" fill="white"/>
<path d="M42.0614 11.4722H41.9197L41.8828 11.6044H41.7751L41.9537 11.0383H42.0614L42.0982 11.6388H41.9905L42.0614 11.4722ZM42.0245 11.1071L41.9168 11.3743H42.0245V11.1071Z" fill="white"/>
<path d="M42.4556 11.541V11.6389L42.2033 11.6071L42.2402 11.0066H42.3479L42.311 11.541H42.4556Z" fill="white"/>
<path d="M42.7049 11.5066H42.5632L42.5264 11.6389H42.4187L42.5972 11.0727H42.7049L42.7418 11.6732H42.6341L42.7049 11.5066ZM42.6681 11.1389L42.5604 11.4061H42.6681V11.1389Z" fill="white"/>
<path d="M43.1329 11.6733L43.0252 11.2738V11.2394V11.2738L42.9912 11.6071H42.8835L42.9175 11.0066H43.0252L43.1329 11.3399V11.4061V11.3743L43.1698 11.041H43.2747L43.2407 11.6389L43.1329 11.6733Z" fill="white"/>
<path d="M43.5267 11.5727H43.385L43.3482 11.705H43.2404L43.419 11.1389H43.5267L43.5636 11.7394H43.4559L43.5267 11.5727ZM43.453 11.2394L43.3453 11.5066H43.453V11.2394Z" fill="white"/>
<path d="M44.0966 11.7738C44.0597 11.7738 43.9889 11.8081 43.9549 11.7738C43.8131 11.7738 43.7763 11.6732 43.8131 11.4748C43.85 11.242 43.9208 11.1759 44.0626 11.1759C44.0994 11.1759 44.1703 11.1759 44.1703 11.2103V11.3108C44.1334 11.3108 44.1334 11.2764 44.0626 11.2764C43.9549 11.2764 43.9208 11.3108 43.9208 11.5092C43.9208 11.7103 43.9208 11.742 44.0286 11.742H44.0654L44.1023 11.5092H44.21L44.0966 11.7738Z" fill="white"/>
<path d="M44.4537 11.6733H44.312L44.2752 11.8055H44.1674L44.346 11.2394H44.4537L44.4906 11.8399H44.3829L44.4537 11.6733ZM44.3829 11.3399L44.2752 11.6071H44.3829V11.3399Z" fill="white"/>
<path d="M44.8108 11.5727L44.9185 11.8399H44.8108L44.7739 11.5727H44.7371L44.7002 11.8399H44.5925L44.6293 11.2394H44.7711C44.8788 11.2394 44.9128 11.2738 44.9128 11.4061C44.9185 11.5066 44.8476 11.541 44.8108 11.5727ZM44.7739 11.3399H44.7371V11.5066H44.7739C44.8108 11.5066 44.8108 11.5066 44.8816 11.4061C44.8476 11.3399 44.8108 11.3399 44.7739 11.3399Z" fill="white"/>
<path d="M45.2389 11.3743C45.2389 11.3743 45.2021 11.3743 45.1312 11.3399C45.0235 11.3399 45.0235 11.3743 44.9895 11.5727C44.9895 11.7394 44.9895 11.8055 45.0972 11.8055H45.2049V11.906H45.0972C44.9555 11.906 44.9186 11.8055 44.9555 11.5727C44.9555 11.3399 45.0632 11.2738 45.2049 11.3055C45.2418 11.3055 45.2418 11.3055 45.3126 11.3399L45.2389 11.3743Z" fill="white"/>
<path d="M45.3098 11.2737H45.4175L45.3806 11.8743H45.2729L45.3098 11.2737ZM45.5252 11.2076L45.4175 11.3081H45.3806L45.4175 11.2076H45.5252Z" fill="white"/>
<path d="M45.7037 11.7738H45.562L45.5252 11.906H45.4174L45.596 11.3399H45.7037L45.7406 11.9404H45.6329L45.7037 11.7738ZM45.6329 11.4722L45.5252 11.7394H45.6329V11.4722V11.406V11.4722Z" fill="white"/>
<path d="M51.1653 5.6802L51.07 6.57526L51.2477 6.59174L51.343 5.69668L51.1653 5.6802Z" fill="white"/>
<path d="M52.7389 5.90879C52.702 5.80826 52.5971 5.80826 52.4894 5.77652H52.3109C52.274 5.77652 52.2032 5.81091 52.1691 5.87705C52.1323 5.84265 52.1323 5.77652 52.0614 5.77652C52.0246 5.74213 51.9537 5.74213 51.9197 5.74213H51.778C51.7411 5.74213 51.7411 5.74213 51.6703 5.77652V5.74213H51.4917L51.384 6.60984H51.5626L51.5994 6.00932C51.5994 5.97493 51.6363 5.90879 51.7071 5.87705C51.744 5.84265 51.8148 5.84265 51.8489 5.84265C51.8857 5.84265 51.9566 5.87705 51.9906 5.87705C52.0274 5.91144 52.0274 5.97757 52.0274 6.00932L51.9906 6.60984H52.1691L52.206 6.00932C52.206 5.97493 52.2428 5.90879 52.2428 5.87705C52.2797 5.84265 52.3505 5.84265 52.3846 5.84265C52.4214 5.84265 52.4923 5.87705 52.5263 5.87705C52.5631 5.91144 52.5631 5.97757 52.5631 6.00932L52.5263 6.60984H52.7049L52.7417 6.00932C52.8097 6.04107 52.7729 5.94054 52.7389 5.90879Z" fill="white"/>
<path d="M53.8101 6.64158V6.60719L53.8469 6.17333C53.8469 6.0728 53.8101 6.04105 53.7392 5.94052C53.7024 5.90613 53.5975 5.84 53.4898 5.84C53.3821 5.84 53.3112 5.84 53.2035 5.87439C53.0958 5.90878 53.0618 5.97492 53.0618 6.04105V6.14158H53.2403V6.10719C53.2403 6.0728 53.2772 6.00666 53.3481 6.00666C53.3849 5.97227 53.4558 5.97227 53.4898 5.97227C53.5266 5.97227 53.5975 6.00666 53.6315 6.00666C53.6684 6.04105 53.6684 6.10719 53.6684 6.13894C53.6684 6.17333 53.6315 6.17333 53.5606 6.23946H53.3821C53.2744 6.23946 53.2035 6.23946 53.0958 6.27386C52.9881 6.30825 52.9541 6.37438 52.9541 6.44052C52.9541 6.50666 52.9541 6.5728 53.0618 6.67332C53.0986 6.70771 53.2035 6.77385 53.3112 6.77385H53.4898C53.5266 6.77385 53.5975 6.73946 53.6315 6.67332C53.6315 6.70771 53.6684 6.70771 53.6684 6.77385C53.7052 6.80824 53.7761 6.80824 53.7761 6.80824H53.8838V6.67597C53.8101 6.67332 53.8101 6.67332 53.8101 6.64158ZM53.5578 6.47491C53.5578 6.5093 53.521 6.57544 53.4501 6.60719C53.4133 6.64158 53.3084 6.64158 53.2715 6.64158C53.2347 6.64158 53.1638 6.64158 53.1298 6.60719C53.093 6.5728 53.093 6.57279 53.093 6.50666C53.093 6.47227 53.1298 6.40613 53.1298 6.40613C53.1667 6.40613 53.2375 6.37174 53.2715 6.37174H53.3084C53.4161 6.37174 53.4869 6.37174 53.5578 6.33735V6.47491Z" fill="white"/>
<path d="M54.808 6.10716C54.7712 6.00663 54.6663 5.97488 54.5217 5.97488H54.3432C54.3063 5.97488 54.2355 6.00928 54.2355 6.00928V5.97488H54.0569L53.9492 6.8426H54.1278L54.1646 6.27647C54.1646 6.24208 54.2015 6.17594 54.2723 6.1442C54.3092 6.1098 54.38 6.1098 54.4509 6.1098C54.4877 6.1098 54.5926 6.1442 54.6295 6.21033C54.6663 6.24472 54.6663 6.31086 54.6663 6.34261L54.6295 6.90874H54.808L54.8449 6.34261C54.9157 6.24208 54.9157 6.1733 54.808 6.10716Z" fill="white"/>
<path d="M50.8085 6.07544C50.7716 6.04104 50.6667 5.97491 50.559 5.97491C50.4513 5.97491 50.4173 5.94052 50.3805 5.94052C50.3436 5.90612 50.3436 5.90612 50.3436 5.83999C50.3436 5.8056 50.3436 5.8056 50.3805 5.73946C50.4173 5.73946 50.4882 5.70507 50.5222 5.73946C50.559 5.73946 50.6299 5.77385 50.6639 5.77385C50.7008 5.80824 50.7008 5.80824 50.7008 5.87438L50.8793 5.83999C50.8793 5.8056 50.8425 5.73946 50.7716 5.70771C50.7348 5.67332 50.6299 5.60719 50.4853 5.57544C50.3776 5.57544 50.3068 5.57544 50.1991 5.60983C50.0914 5.64422 50.0914 5.71036 50.0573 5.7765C50.0573 5.87702 50.0573 5.90877 50.1651 6.0093C50.2019 6.04369 50.3068 6.10983 50.4145 6.10983C50.5222 6.10983 50.5562 6.14422 50.5931 6.14422C50.6299 6.17861 50.7008 6.24475 50.7008 6.27649C50.7008 6.31088 50.6639 6.31088 50.6639 6.37702C50.6271 6.37702 50.5562 6.41141 50.4853 6.37702C50.4485 6.37702 50.3436 6.34263 50.3436 6.27649C50.3068 6.2421 50.3068 6.17596 50.3068 6.14422L50.1282 6.17861C50.1282 6.213 50.1651 6.31088 50.2359 6.34527C50.2728 6.4458 50.4145 6.4458 50.5222 6.47755C50.6299 6.47755 50.7716 6.47755 50.8085 6.44316C50.9162 6.40877 50.9502 6.31088 50.9502 6.27649C50.9162 6.20771 50.9162 6.10718 50.8085 6.07544Z" fill="white"/>
<path d="M49.9158 6.04102L49.3432 6.47488H49.3064L48.8415 5.94049V5.90874L49.4141 5.47488H49.4509L49.9158 6.00927C49.9895 5.97488 49.9158 6.04102 49.9158 6.04102Z" fill="#E6E6E6"/>
<path d="M49.8816 5.90874C49.5613 5.90874 49.1673 5.94313 48.9519 6.04102L48.8442 5.94049V5.90874L49.4168 5.47488H49.4536L49.8816 5.90874Z" fill="white"/>
<path d="M52.4865 16.1045L37.7758 14.8055C37.3109 14.7711 36.9906 14.3717 37.0247 13.9378L37.8466 5.77386C37.8835 5.34 38.3115 5.04106 38.7763 5.0728L53.4871 6.37173C53.952 6.40613 54.2723 6.80559 54.2382 7.23945L53.4162 15.4034C53.3794 15.8055 52.9514 16.1389 52.4865 16.1045Z" fill="#104C97"/>
<path d="M53.4163 15.3716L54.2383 7.20768C54.2751 6.77382 53.952 6.37435 53.4871 6.33996L38.8132 5.04103C38.3484 5.00664 37.9204 5.30822 37.8835 5.74208L42.8098 11.3743L53.4163 15.3716Z" fill="#0767B0"/>
<path d="M38.7763 5.07544L53.4871 6.37437C53.952 6.40876 54.2722 6.80823 54.2382 7.24209" fill="#0E7DC1"/>
<path d="M39.5614 11.0727H39.74V10.8399L39.4537 10.8055L39.4906 10.4061L39.8109 10.4405H39.8477V10.4748V10.5092H39.8109H39.5614V10.742H39.74C39.7768 10.742 39.7768 10.742 39.7768 10.7764V10.8108V11.078C39.7768 11.1124 39.7768 11.1124 39.74 11.1124H39.7031H39.5246H39.4877L39.4509 11.078L39.414 11.0436V11.0092H39.4509H39.4877L39.5614 11.0727Z" fill="white"/>
<path d="M40.0632 11.1071L40.1 10.5727C40.1 10.5383 40.1 10.5383 40.1369 10.5383H40.1737L40.46 10.5727C40.4969 10.5727 40.4969 10.5727 40.4969 10.6071V10.6415L40.46 11.1759C40.46 11.2103 40.46 11.2103 40.4232 11.2103H40.3863L40.1 11.1759C40.0632 11.1732 40.0632 11.1732 40.0632 11.1071C40.0632 11.1389 40.0632 11.1071 40.0632 11.1071ZM40.4912 10.6389L40.2049 10.6045L40.1681 11.0701L40.4544 11.1045L40.4912 10.6389Z" fill="white"/>
<path d="M41.1345 11.2738L40.7065 11.2394L40.7434 10.9404C40.7434 10.906 40.7434 10.906 40.7802 10.906H40.8171L41.1033 10.9404V10.7076L40.783 10.6732H40.7462V10.6389V10.6045H40.783L41.1033 10.6389C41.1402 10.6389 41.1402 10.6389 41.1402 10.6732V10.7076V10.9404C41.1402 10.9748 41.1402 10.9748 41.1033 10.9748H41.0665L40.7802 10.9404V11.1732L41.1005 11.2076H41.1373V11.242C41.2394 11.2738 41.1685 11.2738 41.1345 11.2738C41.1685 11.2738 41.1685 11.2738 41.1345 11.2738Z" fill="white"/>
<path d="M41.4182 11.2394L41.455 10.705C41.455 10.6706 41.455 10.6706 41.4919 10.6706H41.5287L41.815 10.705C41.8519 10.705 41.8519 10.705 41.8519 10.7394V10.7738L41.815 11.3082C41.815 11.3425 41.815 11.3425 41.7782 11.3425H41.7413L41.455 11.3082C41.4182 11.3055 41.4182 11.3055 41.4182 11.2394ZM41.8462 10.7738L41.5599 10.7394L41.5231 11.205L41.8093 11.2394L41.8462 10.7738Z" fill="white"/>
<path d="M42.8125 11.3743H42.9542L42.9911 10.9087H42.8494H42.8125V10.8743V10.8399H42.8494H43.0988L43.0619 11.406H43.1697V11.2394V11.205H43.2065H43.2433V11.2394V11.406V11.4404H43.2065L42.8494 11.406L42.8125 11.3743C42.8125 11.406 42.8125 11.406 42.8125 11.3743C42.7757 11.3743 42.7757 11.3743 42.8125 11.3743Z" fill="white"/>
<path d="M43.4531 11.4061L43.4899 10.8717C43.4899 10.8373 43.4899 10.8373 43.5268 10.8373H43.5636L43.8499 10.8717C43.8868 10.8717 43.8868 10.8717 43.8868 10.9061V10.9405L43.8499 11.4748C43.8499 11.5092 43.8499 11.5092 43.8131 11.5092H43.7762L43.4899 11.4748C43.4531 11.4722 43.4531 11.4722 43.4531 11.4061C43.4531 11.4722 43.4531 11.4722 43.4531 11.4061ZM43.8839 10.9405L43.5976 10.9061L43.5608 11.3717L43.8471 11.4061L43.8839 10.9405Z" fill="white"/>
<path d="M44.1674 11.4722H44.3091L44.3459 11.0066H44.2042H44.1674V10.9722V10.9378H44.2042H44.4537L44.4168 11.5039H44.5245V11.3372V11.3055H44.5614H44.5982V11.3399V11.5727V11.6071H44.5614L44.2042 11.5727H44.1674V11.5383C44.0965 11.5066 44.0965 11.5066 44.1674 11.4722Z" fill="white"/>
<path d="M45.168 11.6389L44.74 11.6045L44.7768 11.3056C44.7768 11.2712 44.7768 11.2712 44.8137 11.2712H44.8505L45.1368 11.3056V11.0727L44.8165 11.0384H44.7796V11.004V10.9696H44.8165L45.1368 11.004C45.1736 11.004 45.1736 11.004 45.1736 11.0384V11.0727V11.3056C45.1736 11.3399 45.1736 11.3399 45.1368 11.3399H45.0999L44.8137 11.3056V11.5384L45.1339 11.5727H45.1708V11.6071C45.2388 11.6389 45.2388 11.6389 45.168 11.6389C45.2388 11.6389 45.2388 11.6389 45.168 11.6389Z" fill="white"/>
<path d="M46.1684 11.6388L46.2053 11.1044C46.2053 11.07 46.2053 11.07 46.2421 11.07H46.279L46.5652 11.1044C46.5652 11.1044 46.6021 11.1044 46.6021 11.1388V11.1732L46.5652 11.7076C46.5652 11.742 46.5652 11.742 46.5284 11.742H46.4916L46.2053 11.7076C46.1684 11.7076 46.1684 11.7076 46.1684 11.6388C46.1684 11.6732 46.1684 11.6732 46.1684 11.6388ZM46.5256 11.2076L46.2393 11.1732L46.2024 11.6388L46.4887 11.6732L46.5256 11.2076Z" fill="white"/>
<path d="M46.812 11.7076L46.8488 11.1732C46.8488 11.1389 46.8488 11.1389 46.8857 11.1389H46.9225L47.2088 11.1732C47.2456 11.1732 47.2457 11.1732 47.2457 11.2076V11.242L47.2088 11.7764C47.2088 11.8108 47.2088 11.8108 47.172 11.8108H47.1351L46.8488 11.7764C46.812 11.7738 46.812 11.7738 46.812 11.7076ZM47.24 11.2394L46.9537 11.205L46.9169 11.6706L47.2031 11.705L47.24 11.2394Z" fill="white"/>
<path d="M47.4526 11.7738L47.4895 11.2394C47.4895 11.205 47.4895 11.205 47.5263 11.205H47.5631L47.8494 11.2394C47.8494 11.2394 47.8863 11.2394 47.8863 11.2738V11.3082L47.8494 11.8426C47.8494 11.877 47.8494 11.877 47.8126 11.877H47.7757L47.4895 11.8426C47.4526 11.8399 47.4526 11.8399 47.4526 11.7738C47.5235 11.8055 47.4526 11.8055 47.4526 11.7738ZM47.8806 11.2738L47.5943 11.2394L47.5575 11.705L47.8438 11.7394L47.8806 11.2738Z" fill="white"/>
<path d="M48.3454 11.8399H48.5239V11.6071L48.2376 11.5727L48.2745 11.1733L48.5948 11.2077H48.6316V11.2421V11.2765H48.5948H48.3454V11.5093H48.5239C48.5608 11.5093 48.5608 11.5093 48.5608 11.5436V11.578V11.8108C48.5608 11.8452 48.5608 11.8452 48.5239 11.8452H48.4871H48.3085H48.2717L48.2348 11.8108L48.198 11.7764V11.7421H48.2348H48.2717L48.3454 11.8399C48.3113 11.8399 48.3113 11.8399 48.3454 11.8399Z" fill="white"/>
<path d="M50.0233 11.5066V11.6733C50.0233 11.7077 50.0233 11.7077 49.9865 11.7738C49.9865 11.8082 50.0233 11.8082 50.0233 11.8743V12.041C50.0233 12.0754 50.0233 12.0754 49.9865 12.0754H49.9496L49.6293 12.041H49.5925V12.0066V11.9722H49.6293L49.9496 12.0066V11.8399V11.8055H49.9128H49.7342H49.6974V11.7711V11.7368H49.7342H49.9128H49.9496V11.7024V11.5357L49.6293 11.5013H49.5925V11.4669V11.4325H49.6293L49.9496 11.4669C49.9865 11.4669 49.9865 11.4669 49.9865 11.5013C50.0233 11.4722 50.0233 11.4722 50.0233 11.5066Z" fill="white"/>
<path d="M50.6669 11.5409V11.7076C50.6669 11.742 50.6669 11.742 50.63 11.8081C50.63 11.8425 50.6669 11.8425 50.6669 11.9087V12.0753C50.6669 12.1097 50.6669 12.1097 50.63 12.1097H50.5932L50.236 12.0753H50.1992V12.0409V12.0065H50.236L50.5563 12.0409V11.8743V11.8399H50.5195H50.3409H50.3041V11.8055V11.7711H50.3409H50.5195H50.5563V11.7367V11.57L50.236 11.5356H50.1992V11.5013V11.4669H50.236L50.5932 11.4007C50.63 11.4007 50.63 11.4007 50.63 11.4351C50.63 11.4722 50.6669 11.5409 50.6669 11.5409Z" fill="white"/>
<path d="M50.9162 12.0727L50.9531 11.5384C50.9531 11.504 50.9531 11.504 50.9899 11.504H51.0268L51.313 11.5384C51.313 11.5384 51.3499 11.5384 51.3499 11.5728V11.6071L51.3102 12.1389C51.3102 12.1733 51.3102 12.1733 51.2734 12.1733H51.2365L50.9502 12.1389C50.9162 12.1389 50.9162 12.1389 50.9162 12.0727C50.9162 12.1071 50.9162 12.0727 50.9162 12.0727ZM51.3102 11.5728L51.0239 11.5384L50.9871 12.004L51.2734 12.0384L51.3102 11.5728Z" fill="white"/>
<path d="M51.5595 12.1389L51.5964 11.6045C51.5964 11.5701 51.5964 11.5701 51.6332 11.5701H51.6701L51.9564 11.6045C51.9564 11.6045 51.9932 11.6045 51.9932 11.6389V11.6733L51.9564 12.2077C51.9564 12.2421 51.9564 12.2421 51.9195 12.2421H51.8827L51.5936 12.205C51.5595 12.205 51.5595 12.205 51.5595 12.1389ZM51.9875 11.6733L51.7013 11.6389L51.6644 12.1045L51.9507 12.1389L51.9875 11.6733Z" fill="white"/>
<path d="M46.5966 9.07276C46.5598 9.07276 46.5598 9.03837 46.4889 9.03837C46.3812 9.03837 46.3103 9.07276 46.3103 9.20503C46.3103 9.3717 46.3472 9.43783 46.4521 9.43783H46.5598V9.47222H46.418C46.2763 9.47222 46.2395 9.3717 46.2395 9.20503C46.2395 9.03837 46.3472 8.97223 46.4889 8.97223C46.5258 8.97487 46.5966 8.97487 46.5966 9.07276Z" fill="white"/>
<path d="M46.846 9.27385L46.9877 9.50665H46.9509L46.846 9.27385H46.7043V9.50665H46.6674L46.7043 9.04105H46.8829C46.9906 9.04105 47.0246 9.07544 47.0246 9.17332C46.9877 9.23946 46.9537 9.27385 46.846 9.27385ZM46.846 9.07279H46.7043V9.23946H46.812C46.9197 9.23946 46.9197 9.23946 46.9537 9.13893C46.9537 9.10718 46.9537 9.07279 46.846 9.07279Z" fill="white"/>
<path d="M47.4186 9.50665H47.0954L47.1323 9.04105L47.4186 9.07279V9.10718L47.1323 9.07279V9.23946H47.3817V9.27385H47.1323V9.44051L47.4186 9.50665Z" fill="white"/>
<path d="M47.702 9.60712H47.5234L47.5603 9.14151H47.7388C47.8805 9.14151 47.9174 9.24204 47.9174 9.4087C47.8805 9.54098 47.8465 9.60712 47.702 9.60712ZM47.702 9.14151H47.5603L47.5234 9.54098H47.6651C47.7728 9.54098 47.8437 9.50659 47.8437 9.37431C47.8805 9.20765 47.8465 9.14151 47.702 9.14151Z" fill="white"/>
<path d="M48.0591 9.10715V9.57275H48.0251L48.0591 9.10715Z" fill="white"/>
<path d="M48.3114 9.64154C48.2745 9.64154 48.2037 9.60715 48.1696 9.60715V9.57276C48.2377 9.60715 48.2377 9.60715 48.3114 9.64154C48.4191 9.60715 48.4531 9.60715 48.4531 9.50927C48.4531 9.377 48.2037 9.40874 48.2037 9.24208C48.2037 9.14155 48.2405 9.1098 48.3822 9.1098C48.4191 9.1098 48.4899 9.1098 48.524 9.14419V9.17858C48.4871 9.17858 48.4162 9.14419 48.3822 9.14419C48.2745 9.14419 48.2405 9.17858 48.2405 9.24472C48.2405 9.377 48.4899 9.34525 48.4899 9.51192C48.4899 9.60715 48.4531 9.64154 48.3114 9.64154Z" fill="white"/>
<path d="M48.6318 9.20767V9.67328H48.5949L48.6318 9.20767Z" fill="white"/>
<path d="M48.918 9.20767L49.0597 9.60714V9.64153L49.0966 9.60714L49.2751 9.27381H49.3091L49.2751 9.73941H49.2383L49.2751 9.40608V9.37434L49.2383 9.40608L49.0597 9.73941H49.0229L48.8811 9.33995V9.3082V9.33995L48.8471 9.67328H48.8103L48.8471 9.20767H48.918Z" fill="white"/>
<path d="M49.7032 9.64155H49.4538L49.4169 9.77382H49.3801L49.6295 9.33996H49.6664L49.8081 9.80557H49.7713L49.7032 9.64155ZM49.5955 9.33996L49.4878 9.57277H49.7372L49.5955 9.33996L49.6324 9.30557L49.5955 9.33996Z" fill="white"/>
<path d="M50.2021 9.80816L49.9527 9.40605L49.9158 9.3743V9.40605L49.8818 9.73938H49.8449L49.8818 9.27377H49.9158L50.1681 9.67324L50.2021 9.70763V9.67324L50.2389 9.33991H50.2729L50.2021 9.80816Z" fill="white"/>
<path d="M50.7745 9.67327H50.6328V9.83993H50.5959L50.6299 9.37433H50.7717C50.8794 9.37433 50.9134 9.40872 50.9134 9.54099C50.9531 9.64152 50.9162 9.67327 50.7745 9.67327ZM50.8085 9.40607H50.6668V9.63888H50.8085C50.9162 9.63888 50.9502 9.63888 50.9502 9.53835C50.9162 9.47486 50.9162 9.40607 50.8085 9.40607Z" fill="white"/>
<path d="M51.3104 9.83993H51.0241L51.061 9.37433H51.095L51.061 9.80554L51.3104 9.83993Z" fill="white"/>
<path d="M51.7724 9.77383C51.7724 9.9061 51.6647 9.94049 51.5938 9.94049C51.4521 9.94049 51.4153 9.83997 51.4153 9.70769L51.4521 9.40875H51.489L51.4521 9.70769C51.4521 9.80822 51.4889 9.83997 51.5938 9.83997C51.7015 9.9061 51.7384 9.83997 51.7724 9.77383V9.47489H51.8092L51.7724 9.77383Z" fill="white"/>
<path d="M52.0245 9.97489C51.9877 9.97489 51.9168 9.9405 51.8828 9.9405V9.9061C51.9168 9.9061 51.9877 9.9405 52.0245 9.97489C52.1322 9.9405 52.1662 9.9405 52.1662 9.84261C52.1662 9.71034 51.9168 9.74209 51.9168 9.57542C51.9168 9.47489 51.9536 9.44315 52.0954 9.44315C52.1322 9.44315 52.2031 9.44315 52.2371 9.47754V9.51193C52.2002 9.51193 52.1294 9.47754 52.0954 9.47754C51.9877 9.47754 51.9536 9.51193 51.9536 9.57807C51.9536 9.71034 52.2031 9.67859 52.2031 9.84526C52.2031 9.9405 52.1294 9.97489 52.0245 9.97489Z" fill="white"/>
<path d="M42.8465 12.2738H42.7048V12.0727H42.8465H42.7048V12.1733H42.8125H42.7048V12.2738H42.8465Z" fill="white"/>
<path d="M42.9912 12.2076L43.0252 12.3399H42.9912V12.2076L42.8835 12.3055H42.8466L42.9912 12.2076L42.8835 12.0727H42.9175L42.9912 12.2076L43.0252 12.1071H43.0621L42.9912 12.2076Z" fill="white"/>
<path d="M43.1696 12.2394H43.1328V12.3399V12.1071H43.2405C43.2773 12.1071 43.3482 12.1415 43.3482 12.2076C43.2745 12.2076 43.2405 12.2394 43.1696 12.2394ZM43.2405 12.1071H43.2036V12.2076H43.2405C43.2773 12.2076 43.2773 12.2076 43.2773 12.1733C43.2745 12.1071 43.2405 12.1071 43.2405 12.1071Z" fill="white"/>
<path d="M43.5269 12.2394L43.5637 12.3717H43.5269V12.2394H43.4192V12.3399V12.1071H43.5269C43.5637 12.1071 43.5637 12.1415 43.5637 12.2076C43.5609 12.2394 43.5609 12.2394 43.5269 12.2394ZM43.5269 12.1389H43.456V12.2394H43.4929C43.5297 12.2394 43.5297 12.2394 43.5297 12.205C43.5609 12.1389 43.5609 12.1389 43.5269 12.1389Z" fill="white"/>
<path d="M43.7395 12.34H43.6318L43.5949 12.3743L43.7027 12.1415H43.7395L43.7763 12.3743L43.7395 12.34ZM43.7055 12.2077L43.6686 12.3082H43.7763L43.7055 12.2077Z" fill="white"/>
<path d="M44.0625 12.5727H44.2411V12.6733L43.9548 12.6389V12.6045L43.9916 12.5701C44.0994 12.4696 44.1702 12.3373 44.1702 12.2712C44.1702 12.2368 44.1702 12.1706 44.1334 12.1706C44.0965 12.1706 44.0965 12.1706 44.0257 12.205V12.1045C44.0625 12.0701 44.1334 12.0701 44.1674 12.0701C44.2751 12.0701 44.3091 12.1045 44.3091 12.2024C44.2411 12.3743 44.1674 12.4722 44.0625 12.5727Z" fill="white"/>
<path d="M44.4536 12.6732C44.3459 12.6732 44.3119 12.5727 44.3459 12.3743C44.3459 12.1415 44.3827 12.1071 44.5245 12.1071C44.6322 12.1071 44.6662 12.2076 44.6322 12.4061C44.5613 12.6389 44.5245 12.705 44.4536 12.6732ZM44.4904 12.2076C44.4536 12.2076 44.4536 12.2076 44.3827 12.3743C44.3827 12.541 44.3827 12.6071 44.4196 12.6071C44.4564 12.6071 44.4564 12.6071 44.5273 12.3743C44.5245 12.2394 44.5245 12.2076 44.4904 12.2076Z" fill="white"/>
<path d="M44.7031 12.6388H44.8817V12.7394L44.5954 12.705V12.6706H44.6323C44.74 12.5701 44.8108 12.4378 44.8108 12.3717C44.8108 12.3373 44.8108 12.2711 44.774 12.2711C44.7372 12.2711 44.7372 12.2711 44.6663 12.3055V12.205C44.7031 12.1706 44.774 12.1706 44.808 12.1706C44.9157 12.1706 44.9497 12.205 44.9497 12.3029C44.9497 12.4008 44.8477 12.5066 44.7031 12.6388Z" fill="white"/>
<path d="M45.0972 12.7738C44.9894 12.7738 44.9554 12.6733 44.9894 12.4749C44.9894 12.2421 45.0263 12.2077 45.168 12.2077C45.2757 12.2077 45.3097 12.3082 45.2757 12.5066C45.2389 12.6733 45.168 12.7738 45.0972 12.7738ZM45.1312 12.2738C45.0943 12.2738 45.0943 12.2738 45.0235 12.4405C45.0235 12.6071 45.0235 12.6733 45.0603 12.6733C45.0972 12.6733 45.0972 12.6733 45.168 12.4405C45.2389 12.2738 45.168 12.2738 45.1312 12.2738Z" fill="white"/>
<path d="M39.4198 13.5066H39.2781L39.2412 13.6389H39.1335L39.3121 13.0728H39.4198L39.4566 13.6733H39.3489L39.4198 13.5066ZM39.3829 13.1389L39.2752 13.4061H39.3829V13.1389Z" fill="white"/>
<path d="M39.8478 13.5727V13.6733L39.5984 13.6389L39.6324 13.0384H39.7401L39.7061 13.5727H39.8478Z" fill="white"/>
<path d="M40.0973 13.5383H39.9556L39.9187 13.6706H39.811L39.9896 13.1045H40.0973L40.1341 13.705H40.0264L40.0973 13.5383ZM40.0633 13.2394L39.9556 13.5066H40.0633V13.2394Z" fill="white"/>
<path d="M40.5254 13.705L40.3836 13.3717V13.3399V13.3717L40.3468 13.705H40.2419L40.2759 13.1071H40.3836L40.4913 13.5066V13.5383V13.5066L40.5254 13.1733H40.6331L40.5991 13.7738L40.5254 13.705Z" fill="white"/>
<path d="M40.9193 13.6389H40.7776L40.7407 13.7711H40.633L40.8116 13.205H40.9193L41.027 13.8055H40.9193V13.6389ZM40.8484 13.2738L40.7407 13.541H40.8484V13.2738Z" fill="white"/>
<path d="M41.4918 13.8055C41.455 13.8055 41.3841 13.8399 41.3501 13.8055C41.2084 13.8055 41.1716 13.705 41.2084 13.5066C41.2084 13.2738 41.3161 13.2076 41.4578 13.2076C41.4947 13.2076 41.5655 13.2076 41.5655 13.242V13.3426C41.5287 13.3426 41.5287 13.3082 41.4578 13.3082C41.3501 13.3082 41.3161 13.3426 41.3161 13.541C41.3161 13.7394 41.3161 13.7738 41.4238 13.7738H41.4607L41.4975 13.541H41.6052L41.4918 13.8055Z" fill="white"/>
<path d="M41.7753 13.7049H41.6335L41.5967 13.8372H41.489L41.6676 13.2711H41.7753L41.8121 13.8716H41.7044L41.7753 13.7049ZM41.7412 13.3716L41.6335 13.6388H41.7412V13.3716Z" fill="white"/>
<path d="M42.2033 13.6388L42.311 13.906H42.2033L42.1665 13.6388H42.1296L42.0928 13.906H41.9851L42.0219 13.3055H42.1636C42.2714 13.3055 42.3054 13.3399 42.3054 13.4722C42.311 13.5383 42.2402 13.5727 42.2033 13.6388ZM42.1693 13.3716H42.1325V13.5383H42.1693C42.2062 13.5383 42.2062 13.5383 42.277 13.4378C42.2033 13.3716 42.2033 13.3716 42.1693 13.3716Z" fill="white"/>
<path d="M42.6339 13.406C42.6339 13.406 42.5971 13.406 42.5262 13.3716C42.4185 13.3716 42.4185 13.406 42.3845 13.6044C42.3845 13.7711 42.3845 13.8372 42.4922 13.8372H42.5999V13.9378H42.4922C42.3505 13.9378 42.3136 13.8372 42.3505 13.6388C42.3477 13.406 42.4554 13.3399 42.6339 13.406C42.6339 13.3716 42.6339 13.3716 42.7048 13.406H42.6339Z" fill="white"/>
<path d="M42.7048 13.3399H42.8125L42.7756 13.9404H42.6679L42.7048 13.3399ZM42.8465 13.2394L42.7388 13.3399H42.702L42.7388 13.2394H42.8465Z" fill="white"/>
<path d="M43.025 13.8055H42.8833L42.8464 13.9378H42.7387L42.9173 13.3716H43.025L43.0619 13.9722H42.9542L43.025 13.8055ZM42.991 13.5066L42.8833 13.7738H42.991V13.5066Z" fill="white"/>
<path d="M48.5972 7.65647L48.5066 8.55197L48.6843 8.56765L48.775 7.67215L48.5972 7.65647Z" fill="white"/>
<path d="M50.1681 7.90608C50.1312 7.80555 50.0263 7.80555 49.9186 7.7738H49.7401C49.7032 7.7738 49.6324 7.80819 49.5983 7.87433C49.5615 7.83994 49.5615 7.7738 49.4906 7.7738C49.4538 7.73941 49.3829 7.73941 49.3489 7.73941H49.2072C49.1703 7.73941 49.1703 7.73941 49.0995 7.7738V7.73941H48.9209L48.8132 8.60713H48.9918L49.0286 8.0066C49.0286 7.97221 49.0655 7.90608 49.1363 7.87433C49.1732 7.83994 49.244 7.83994 49.2781 7.83994C49.3149 7.83994 49.3858 7.87433 49.4198 7.87433C49.4566 7.90872 49.4566 7.97486 49.4566 8.0066L49.4198 8.60713H49.5983L49.6352 8.0066C49.6352 7.97221 49.672 7.90608 49.672 7.87433C49.7089 7.83994 49.7797 7.83994 49.8138 7.83994C49.8506 7.83994 49.9215 7.87433 49.9555 7.87433C49.9923 7.90872 49.9923 7.97486 49.9923 8.0066L49.9555 8.60713H50.1341L50.1709 8.0066C50.2389 8.041 50.2021 7.94047 50.1681 7.90608Z" fill="white"/>
<path d="M51.2393 8.64153L51.2761 8.17592C51.2761 8.07539 51.2393 8.04365 51.1684 7.94312C51.1316 7.90873 51.0267 7.84259 50.919 7.84259C50.8113 7.84259 50.7404 7.84259 50.6327 7.87698C50.525 7.91137 50.491 7.97751 50.491 8.04365V8.14418H50.6696V8.10978C50.6696 8.07539 50.7064 8.00926 50.7773 8.00926C50.8141 7.97486 50.885 7.97486 50.919 7.97486C50.9558 7.97486 51.0267 8.00926 51.0607 8.00926C51.0975 8.04365 51.0976 8.10978 51.0976 8.14153C51.0976 8.17592 51.0607 8.17592 50.9898 8.24206H50.8113C50.7036 8.24206 50.6327 8.24206 50.525 8.27645C50.4173 8.31084 50.3833 8.37698 50.3833 8.44311C50.3833 8.50925 50.3833 8.57539 50.491 8.67592C50.5278 8.71031 50.6327 8.77645 50.7404 8.77645H50.919C50.9558 8.77645 51.0267 8.74205 51.0607 8.67592C51.0607 8.71031 51.0976 8.71031 51.0976 8.77645C51.1344 8.81084 51.2053 8.81084 51.2053 8.81084H51.3101V8.67856C51.2733 8.67327 51.2393 8.67327 51.2393 8.64153ZM51.0607 8.47486C51.0607 8.50925 51.0239 8.57539 50.953 8.60713C50.9161 8.64153 50.8113 8.64153 50.7744 8.64153C50.7376 8.64153 50.6667 8.64153 50.6327 8.60713C50.5959 8.57274 50.5959 8.57274 50.5959 8.50661C50.5959 8.47221 50.6327 8.40608 50.6327 8.40608C50.6696 8.40608 50.7404 8.37169 50.7744 8.37169H50.8113C50.919 8.37169 50.9898 8.37169 51.0607 8.3373V8.47486Z" fill="white"/>
<path d="M52.308 8.10713C52.2712 8.0066 52.1663 7.97485 52.0217 7.97485H51.8432C51.8063 7.97485 51.7355 8.00925 51.7355 8.00925V7.97485H51.5569L51.4492 8.84257H51.6278L51.6646 8.27644C51.6646 8.24205 51.7015 8.17591 51.7723 8.14416C51.8092 8.10977 51.88 8.10977 51.9509 8.10977C51.9877 8.10977 52.0926 8.14416 52.1295 8.2103C52.1663 8.24469 52.1663 8.31083 52.1663 8.34258L52.1295 8.90871H52.308L52.3449 8.34258C52.3817 8.2394 52.3449 8.14152 52.308 8.10713Z" fill="white"/>
<path d="M48.2377 8.07278C48.2008 8.03839 48.0959 7.97225 47.9882 7.97225C47.8805 7.97225 47.8465 7.93786 47.8097 7.93786C47.7728 7.90347 47.7728 7.90347 47.7728 7.83733C47.7728 7.80294 47.7728 7.80294 47.8097 7.7368C47.8465 7.7368 47.9174 7.70241 47.9514 7.7368C47.9882 7.7368 48.0591 7.7712 48.0931 7.7712C48.13 7.80559 48.13 7.80559 48.13 7.87172L48.3085 7.83733C48.3085 7.80294 48.2717 7.7368 48.2008 7.70506C48.164 7.67067 48.0591 7.60453 47.9145 7.57278C47.8068 7.57278 47.736 7.57278 47.6283 7.60718C47.5206 7.64157 47.5206 7.7077 47.4865 7.77384C47.4865 7.87437 47.4865 7.90611 47.5943 8.00664C47.6311 8.04103 47.736 8.10717 47.8437 8.10717C47.9514 8.10717 47.9854 8.14156 48.0223 8.14156C48.0591 8.17595 48.13 8.24209 48.13 8.27384C48.13 8.30823 48.0931 8.30823 48.0931 8.37436C48.0563 8.37436 47.9854 8.40876 47.9145 8.37436C47.8777 8.37436 47.7728 8.33997 47.7728 8.27384C47.736 8.23945 47.736 8.17331 47.736 8.14156L47.5574 8.17595C47.5574 8.21035 47.5943 8.30823 47.6651 8.34262C47.702 8.44315 47.8437 8.44315 47.9514 8.47489C48.0591 8.47489 48.2008 8.47489 48.2377 8.4405C48.3454 8.40611 48.3794 8.30823 48.3794 8.27384C48.3454 8.2077 48.3454 8.14156 48.2377 8.07278Z" fill="white"/>
<path d="M47.3817 8.07275L46.8091 8.5066H46.7751L46.3103 7.97222V7.93783L46.8828 7.50397H46.9197L47.3817 8.07275C47.4185 8.041 47.4185 8.041 47.3817 8.07275Z" fill="#E6E6E6"/>
<path d="M47.3108 7.94047C46.9905 7.94047 46.5965 8.041 46.3811 8.07275L46.2734 7.97222V7.93783L46.846 7.50397H46.8828L47.3108 7.94047Z" fill="white"/>
</g>
<defs>
<clipPath id="clip0_2064_1494">
<rect width="60.5714" height="16" fill="white" transform="translate(0 0.639984)"/>
</clipPath>
</defs>
</svg>
