<svg width="95" height="9" viewBox="0 0 95 9" fill="none" xmlns="http://www.w3.org/2000/svg">
<path d="M77.1109 0.879028L75.0818 6.00998L74.2576 1.64977C74.1601 1.16216 73.7826 0.882174 73.3579 0.882174H70.039L69.9918 1.10239C70.6744 1.25024 71.4483 1.48933 71.9171 1.74415C72.2033 1.90144 72.2851 2.03672 72.3795 2.40793L73.9336 8.42602H75.9973L79.1589 0.88532H77.1109V0.879028Z" fill="#1434CB"/>
<path d="M79.9957 0.879028L78.3818 8.41973H80.3323L81.9461 0.879028H79.9957Z" fill="#1434CB"/>
<path d="M92.5605 0.879028H90.8963C90.5219 0.879028 90.2073 1.09609 90.0658 1.43271L87.1401 8.41973H89.1881L89.5939 7.2935H92.098L92.334 8.41973H94.1366L92.5605 0.879028ZM90.1539 5.74887L91.1794 2.91757L91.7709 5.74887H90.1539Z" fill="#1434CB"/>
<path d="M84.507 2.96792C84.5133 2.69738 84.7712 2.4111 85.3343 2.3356C85.6143 2.29785 86.3851 2.26953 87.2565 2.67221L87.5994 1.0741C87.1306 0.904218 86.5266 0.740631 85.7748 0.740631C83.8463 0.740631 82.4905 1.76619 82.4779 3.23218C82.4653 4.31751 83.4468 4.92467 84.1861 5.2833C84.9474 5.65137 85.2022 5.89046 85.1991 6.22077C85.1928 6.72726 84.5919 6.95062 84.0319 6.96006C83.0504 6.97579 82.481 6.6958 82.028 6.48503L81.6757 8.13662C82.1318 8.34425 82.9718 8.52671 83.8463 8.53615C85.8943 8.53615 87.2376 7.52317 87.2439 5.95652C87.247 3.96832 84.4881 3.85821 84.507 2.96792Z" fill="#1434CB"/>
<path d="M5.70867 2.76661C5.32801 2.64707 4.84669 2.5464 4.3056 2.5464C3.07241 2.5464 2.77355 3.02772 2.77355 4.6101C2.77355 6.28372 3.10387 6.76504 4.33706 6.76504C4.84669 6.76504 5.32801 6.66437 5.73069 6.49449L5.94146 8.13665C5.41924 8.37574 4.6894 8.53618 4.0382 8.53618C1.72597 8.53618 0.571426 7.26524 0.571426 4.60067C0.571426 2.13743 1.68193 0.743805 4.17662 0.743805C4.76804 0.743805 5.46958 0.872786 5.91944 1.04581L5.70867 2.76661Z" fill="#001A70"/>
<path d="M11.582 5.37142L13.2147 8.39777H10.7704L9.66929 5.78353H8.90798V8.39777H6.81282V0.882233H9.67873C11.6921 0.882233 12.7145 1.6341 12.7145 3.31715C12.7145 4.32069 12.3024 5.082 11.582 5.37142ZM9.70075 2.55585H8.90798V4.27979H9.67873C10.2985 4.27979 10.5313 4.12879 10.5313 3.39895C10.5313 2.73831 10.3205 2.55585 9.70075 2.55585Z" fill="#001A70"/>
<path d="M19.0755 6.64236L19.0346 8.39462H13.7338V0.882233H18.9025L18.9339 2.65652H15.8289V3.75758H18.3928V5.35884H15.8289V6.64236H19.0755Z" fill="#001A70"/>
<path d="M22.879 8.39777H19.903V0.882233H22.8475C25.3013 0.882233 26.3143 2.03363 26.3143 4.59753C26.3143 7.32502 25.1346 8.39777 22.879 8.39777ZM22.8412 2.68797H22.0013V6.61405H22.8412C23.8039 6.61405 24.1122 6.33406 24.1122 4.59124C24.1122 3.00886 23.8133 2.68797 22.8412 2.68797Z" fill="#001A70"/>
<path d="M27.2958 0.882233H29.4382V8.39462H27.2958V0.882233Z" fill="#001A70"/>
<path d="M32.8073 8.53617C31.9359 8.53617 31.0928 8.33483 30.4133 7.98564L30.6744 6.25225C31.3571 6.59201 32.0555 6.79335 32.7884 6.79335C33.4585 6.79335 33.7196 6.59201 33.7196 6.22079C33.7196 5.29905 30.4227 5.68914 30.4227 3.1567C30.4227 1.83542 31.2753 0.753235 33.2886 0.753235C34.0405 0.753235 34.8616 0.8948 35.4719 1.13389L35.2328 2.82638C34.5816 2.63448 33.9398 2.53695 33.4082 2.53695C32.5965 2.53695 32.4361 2.75717 32.4361 3.04659C32.4361 3.97777 35.7204 3.55622 35.7204 6.09181C35.7204 7.59555 34.6194 8.53617 32.8073 8.53617Z" fill="#001A70"/>
<path d="M36.5825 0.882233H38.7249V8.39462H36.5825V0.882233Z" fill="#001A70"/>
<path d="M42.2324 0.882235L43.7236 4.71708L44.0035 5.47838H44.035L44.3056 4.72651L45.8187 0.879089H48.1026V8.39148H46.1899V5.22986L46.2088 4.41822L46.1774 4.40878L45.8974 5.17952L44.6642 8.39462H43.2926L42.0594 5.16065L41.7888 4.3899L41.77 4.39934L41.7794 5.21098V8.39777H39.9359V0.882235H42.2324Z" fill="#001A70"/>
<path d="M53.5104 7.1048H51.1856L50.8553 8.39776H48.6406L51.1353 0.885376H53.6394L56.175 8.39776H53.8407L53.5104 7.1048ZM52.1577 3.32659L51.6166 5.43119H53.0889L52.5572 3.33602L52.3779 2.53382H52.3464L52.1577 3.32659Z" fill="#001A70"/>
<path d="M61.5514 8.39777L59.0473 4.93099L58.588 4.26092L58.5691 4.27036L58.5786 5.082V8.39777H56.7162V0.882233H58.459L61.1645 4.77999L61.1834 4.77055L61.1645 3.96835V0.882233H63.0174V8.39462H61.5514V8.39777Z" fill="#001A70"/>
<path d="M66.5092 8.75953C66.3268 8.75953 66.1789 8.61168 66.1789 8.42922V0.850765C66.1789 0.668304 66.3268 0.520447 66.5092 0.520447C66.6917 0.520447 66.8396 0.668304 66.8396 0.850765V8.42922C66.8396 8.61168 66.6917 8.75953 66.5092 8.75953Z" fill="#001A70"/>
</svg>
