<svg width="94" height="18" viewBox="0 0 94 18" fill="none" xmlns="http://www.w3.org/2000/svg">
<path d="M20.82 12.36V3.95998H22.92C25.104 3.95998 25.956 5.09999 25.956 6.46799C25.956 8.01599 24.984 9.23999 22.716 9.23999H21.9V12.36H20.82ZM22.608 8.27999C23.916 8.27999 24.78 7.93199 24.78 6.53999C24.78 5.21999 23.892 4.90798 22.752 4.90798H21.9V8.27999H22.608ZM26.7928 10.704C26.7928 9.13199 28.3408 8.67599 30.7168 8.80799V8.41199C30.7168 7.47599 30.3688 6.92399 29.3128 6.92399C28.3528 6.92399 27.9208 7.43999 27.5848 7.85998L26.8648 7.28399C27.3928 6.52798 28.2088 6.02399 29.4088 6.02399C31.3408 6.02399 31.7848 7.13998 31.7848 8.43599V12.36H30.8608L30.7888 11.496C30.4888 12.048 29.8168 12.516 28.8208 12.516C27.4408 12.516 26.7928 11.676 26.7928 10.704ZM27.8968 10.644C27.8968 11.244 28.2808 11.676 29.0968 11.676C29.9248 11.676 30.7168 11.112 30.7168 9.92399V9.64799C29.0608 9.57599 27.8968 9.67199 27.8968 10.644ZM36.7834 15.036C35.0194 15.036 34.1074 14.232 33.7354 13.584L34.5274 12.948C34.8754 13.488 35.6074 14.088 36.7234 14.088C38.1394 14.088 39.0034 13.416 39.0034 11.94V11.244C38.6914 11.832 37.8034 12.42 36.6394 12.42C34.6474 12.42 33.4594 11.172 33.4594 9.33599C33.4594 7.28399 34.8514 6.02399 36.7354 6.02399C37.9594 6.02399 38.7034 6.61198 39.0394 7.16399V6.20399H40.0714V11.94C40.0714 13.98 38.7394 15.036 36.7834 15.036ZM36.7234 11.484C38.2474 11.484 39.0394 10.584 39.0394 9.25199C39.0394 7.65599 37.9834 6.95999 36.7234 6.95999C35.1634 6.95999 34.5754 8.06399 34.5754 9.20399C34.5754 10.668 35.2954 11.484 36.7234 11.484ZM45.1148 12.54C43.0148 12.54 41.8148 11.268 41.8148 9.33599C41.8148 7.37999 43.1588 6.02399 45.1628 6.02399C47.1788 6.02399 48.4628 7.36799 48.4628 9.19199C48.4628 11.184 47.0948 12.54 45.1148 12.54ZM45.1388 11.604C46.4468 11.604 47.3468 10.716 47.3468 9.17999C47.3468 7.87199 46.5188 6.95999 45.1388 6.95999C43.7948 6.95999 42.9308 7.87199 42.9308 9.27599C42.9308 10.752 43.7228 11.604 45.1388 11.604ZM53.1643 10.236C53.3203 10.884 53.6323 11.616 54.7003 11.616C55.4443 11.616 55.9603 11.268 55.9603 10.584C55.9603 9.76799 55.3243 9.68399 54.5203 9.51599C53.6443 9.33599 52.6243 8.99999 52.6243 7.76399C52.6243 6.62399 53.5723 6.02399 54.6283 6.02399C55.9003 6.02399 56.4043 6.62399 56.7283 7.30798L55.8643 7.73999C55.6483 7.27199 55.3123 6.88798 54.6043 6.88798C54.0523 6.88798 53.6683 7.15199 53.6683 7.65599C53.6683 8.35199 54.2563 8.44799 55.0123 8.60399C55.9123 8.78399 57.0523 9.01199 57.0523 10.464C57.0523 11.652 56.2003 12.54 54.7003 12.54C52.9243 12.54 52.3603 11.436 52.2523 10.536L53.1643 10.236ZM61.2822 12.54C59.3982 12.54 58.1742 11.268 58.1742 9.33599C58.1742 7.37999 59.4462 6.02399 61.3422 6.02399C63.4422 6.02399 64.3422 7.53599 64.2102 9.61199H59.2542C59.3622 10.836 60.1182 11.616 61.3182 11.616C62.1942 11.616 62.9262 11.244 63.3342 10.656L64.0902 11.184C63.5262 11.988 62.6022 12.54 61.2822 12.54ZM63.1422 8.75999C63.0942 7.58398 62.5422 6.89999 61.3062 6.89999C60.1302 6.89999 59.4222 7.57199 59.2782 8.75999H63.1422ZM68.8693 15.036C67.1053 15.036 66.1933 14.232 65.8213 13.584L66.6133 12.948C66.9613 13.488 67.6933 14.088 68.8093 14.088C70.2253 14.088 71.0893 13.416 71.0893 11.94V11.244C70.7773 11.832 69.8893 12.42 68.7253 12.42C66.7333 12.42 65.5453 11.172 65.5453 9.33599C65.5453 7.28399 66.9373 6.02399 68.8213 6.02399C70.0453 6.02399 70.7893 6.61198 71.1253 7.16399V6.20399H72.1573V11.94C72.1573 13.98 70.8253 15.036 68.8693 15.036ZM68.8093 11.484C70.3333 11.484 71.1253 10.584 71.1253 9.25199C71.1253 7.65599 70.0693 6.95999 68.8093 6.95999C67.2493 6.95999 66.6613 8.06399 66.6613 9.20399C66.6613 10.668 67.3813 11.484 68.8093 11.484ZM79.6022 10.128C79.6022 11.676 78.5702 12.54 76.9022 12.54C75.0662 12.54 74.2622 11.652 74.2622 10.128V6.20399H75.3302V9.81599C75.3302 11.064 75.7262 11.58 76.9022 11.58C78.2462 11.58 78.5342 10.92 78.5342 9.81599V6.20399H79.6022V10.128ZM85.1342 7.06799C85.0262 7.03198 84.7742 7.00799 84.5822 7.00799C83.5502 7.00799 82.8902 7.90799 82.8902 8.97599V12.36H81.8222V6.20399H82.8542V7.27199C83.1302 6.58798 83.7062 6.02399 84.6062 6.02399C84.8462 6.02399 85.1582 6.07198 85.3142 6.13198L85.1342 7.06799ZM89.025 12.54C86.925 12.54 85.725 11.268 85.725 9.33599C85.725 7.37999 87.069 6.02399 89.073 6.02399C91.089 6.02399 92.373 7.36799 92.373 9.19199C92.373 11.184 91.005 12.54 89.025 12.54ZM89.049 11.604C90.357 11.604 91.257 10.716 91.257 9.17999C91.257 7.87199 90.429 6.95999 89.049 6.95999C87.705 6.95999 86.841 7.87199 86.841 9.27599C86.841 10.752 87.633 11.604 89.049 11.604Z" fill="#03499A"/>
<path d="M8.64003 1.43997L2.16003 3.59997V10.08C2.16003 13.6592 5.06085 16.56 8.64003 16.56C12.2192 16.56 15.12 13.6592 15.12 10.08V3.59997L8.64003 1.43997ZM13.905 10.08C13.905 12.9875 11.5476 15.345 8.64003 15.345C5.73247 15.345 3.37503 12.9875 3.37503 10.08V4.51122L8.64003 2.65497L13.905 4.51122V10.08Z" fill="#03499A"/>
<path d="M6.38552 8.37729C6.32921 8.32073 6.26229 8.27585 6.18858 8.24522C6.11488 8.21459 6.03586 8.19883 5.95605 8.19883C5.87624 8.19883 5.79721 8.21459 5.72351 8.24522C5.64981 8.27585 5.58289 8.32073 5.52658 8.37729C5.47002 8.4336 5.42513 8.50052 5.39451 8.57422C5.36388 8.64793 5.34811 8.72695 5.34811 8.80676C5.34811 8.88657 5.36388 8.9656 5.39451 9.0393C5.42513 9.113 5.47002 9.17992 5.52658 9.23623L7.7102 11.4199L7.74564 11.4553C7.7989 11.5087 7.86216 11.551 7.9318 11.5799C8.00144 11.6088 8.07609 11.6236 8.15149 11.6236C8.22688 11.6236 8.30153 11.6088 8.37117 11.5799C8.44081 11.551 8.50407 11.5087 8.55733 11.4553L12.3289 7.68373C12.3823 7.63047 12.4246 7.56721 12.4535 7.49757C12.4824 7.42793 12.4972 7.35328 12.4972 7.27789C12.4972 7.20249 12.4824 7.12784 12.4535 7.0582C12.4246 6.98856 12.3823 6.9253 12.3289 6.87204L12.2816 6.82479C12.2284 6.77143 12.1651 6.7291 12.0955 6.70021C12.0258 6.67133 11.9512 6.65646 11.8758 6.65646C11.8004 6.65646 11.7258 6.67133 11.6561 6.70021C11.5865 6.7291 11.5232 6.77143 11.47 6.82479L8.15064 10.1424L6.38552 8.37729Z" fill="#378408"/>
</svg>
