<?xml version="1.0" standalone="no"?>
<!DOCTYPE svg PUBLIC "-//W3C//DTD SVG 20010904//EN"
 "http://www.w3.org/TR/2001/REC-SVG-20010904/DTD/svg10.dtd">
<svg version="1.0" xmlns="http://www.w3.org/2000/svg"
 width="1080.000000pt" height="271.000000pt" viewBox="0 0 1080.000000 271.000000"
 preserveAspectRatio="xMidYMid meet">
<metadata>
Created by potrace 1.10, written by Peter Selinger 2001-2011
</metadata>
<g transform="translate(0.000000,271.000000) scale(0.100000,-0.100000)"
fill="#000000" stroke="none">
<path d="M312 2377 c-105 -106 -192 -197 -192 -202 0 -13 392 -405 405 -405
13 0 405 393 405 405 0 5 -86 96 -192 202 -125 125 -200 193 -213 193 -13 0
-88 -68 -213 -193z m375 18 c82 -83 147 -152 146 -155 -1 -3 12 -15 28 -25 16
-11 29 -27 29 -36 0 -8 -82 -97 -182 -197 -142 -142 -184 -179 -197 -172 -13
7 -150 142 -327 321 -18 18 -31 38 -30 46 3 21 356 371 372 369 7 -1 80 -69
161 -151z"/>
<path d="M1241 2520 c-119 -25 -192 -130 -161 -233 25 -86 117 -146 251 -162
65 -8 131 -44 148 -79 27 -58 -22 -103 -123 -113 -77 -8 -141 22 -164 77 -19
44 -23 45 -95 15 -20 -8 -37 -21 -37 -29 0 -18 46 -86 73 -109 128 -107 391
-76 458 54 31 62 24 145 -17 196 -44 55 -118 91 -208 103 -129 16 -178 51
-162 114 10 39 51 61 116 61 63 0 100 -19 128 -64 l17 -27 57 25 58 26 -19 31
c-23 37 -76 83 -117 100 -42 18 -149 25 -203 14z m183 -36 c43 -15 116 -73
116 -92 0 -4 -14 -13 -32 -21 -27 -12 -32 -12 -42 1 -28 38 -89 68 -138 68
-87 0 -140 -36 -152 -102 -10 -58 70 -111 184 -122 150 -15 242 -101 225 -211
-9 -61 -68 -129 -122 -140 -10 -2 -39 -8 -65 -14 -71 -16 -170 2 -229 42 -48
32 -83 87 -67 103 27 26 56 20 80 -15 20 -29 41 -44 99 -71 25 -12 101 -5 147
14 51 22 82 58 82 97 0 46 -63 102 -130 117 -59 13 -130 30 -168 39 -29 7 -90
65 -102 99 -15 39 -12 110 5 124 8 7 15 18 15 25 0 17 62 56 104 65 55 14 141
11 190 -6z"/>
<path d="M1740 2175 l0 -355 63 0 62 0 -3 355 -2 355 -60 0 -60 0 0 -355z m99
0 c0 -312 -1 -324 -20 -330 -10 -4 -28 -4 -39 0 -19 6 -20 16 -19 331 l0 324
39 0 40 0 -1 -325z"/>
<path d="M2182 2516 c-23 -8 -49 -20 -57 -26 -12 -10 -15 -9 -15 4 0 13 -11
16 -60 16 l-60 0 0 -345 0 -345 63 0 62 0 0 253 c0 289 1 293 82 329 50 22 97
19 140 -9 50 -33 53 -53 53 -323 l0 -250 65 0 65 0 0 259 0 259 25 31 c45 53
123 63 183 23 49 -32 52 -53 52 -322 l0 -250 65 0 65 0 0 243 c0 286 -6 320
-72 384 -98 96 -242 106 -354 24 -37 -26 -42 -27 -51 -11 -31 49 -174 81 -251
56z m168 -32 c22 -9 40 -19 40 -23 0 -3 14 -12 31 -20 26 -12 36 -12 53 -1 74
46 112 60 165 60 74 0 113 -12 162 -51 73 -58 76 -71 77 -351 1 -186 -2 -248
-11 -249 -7 0 -20 -2 -30 -4 -11 -2 -21 5 -26 18 -4 12 -8 119 -9 237 -1 118
-4 226 -7 242 -8 36 -66 85 -110 94 -78 14 -166 -33 -183 -100 -5 -17 -10
-132 -11 -256 -1 -123 -4 -227 -7 -230 -11 -10 -64 -7 -64 4 0 6 -2 117 -4
247 -4 269 -7 283 -83 319 -91 42 -187 11 -232 -77 -7 -14 -12 -103 -12 -257
-1 -221 -2 -236 -20 -241 -11 -4 -28 -4 -38 0 -19 6 -20 18 -20 322 l0 316 59
-6 c37 -3 73 0 97 9 52 18 134 17 183 -2z"/>
<path d="M3280 2523 c-82 -14 -159 -57 -189 -107 -10 -17 -21 -57 -24 -88 l-6
-58 63 0 63 0 7 41 c8 50 41 84 96 99 48 13 94 6 132 -21 29 -21 52 -77 42
-103 -9 -24 -53 -44 -115 -51 -209 -24 -320 -99 -319 -218 1 -45 32 -108 69
-140 89 -74 286 -72 367 4 20 18 23 19 31 5 14 -26 84 -56 128 -56 l40 0 0 55
c0 46 -3 55 -17 55 -10 0 -27 9 -38 20 -19 19 -20 33 -20 216 0 183 -1 199
-22 235 -46 81 -174 131 -288 112z m153 -37 c53 -19 105 -62 120 -99 12 -29
15 -93 17 -400 0 -10 16 -33 35 -53 19 -19 35 -44 35 -55 0 -30 -72 -23 -116
12 -31 24 -74 30 -74 10 0 -11 -63 -40 -105 -47 -148 -25 -266 26 -281 122
-16 106 29 168 148 207 9 3 61 13 115 22 154 26 196 74 142 162 -59 96 -221
95 -280 -1 -10 -17 -19 -39 -19 -48 0 -14 -9 -18 -40 -18 -38 0 -40 2 -40 30
0 61 49 119 130 154 44 19 162 20 213 2z"/>
<path d="M3438 2169 c-10 -5 -18 -7 -18 -4 0 3 -8 1 -18 -4 -10 -5 -52 -13
-92 -17 -41 -4 -87 -14 -104 -23 -65 -37 -87 -103 -52 -156 59 -90 264 -55
321 56 17 32 20 111 5 140 -12 22 -18 23 -42 8z m20 -124 c-20 -59 -81 -98
-162 -103 -100 -7 -150 32 -132 102 10 42 57 66 153 77 48 6 102 17 118 23 30
13 30 12 33 -23 2 -20 -3 -54 -10 -76z"/>
<path d="M4019 2517 c-25 -7 -60 -23 -78 -36 l-32 -23 7 26 6 26 -66 0 -66 0
0 -345 0 -345 65 0 65 0 0 243 c0 223 2 245 20 274 29 48 91 76 157 71 60 -5
96 -27 131 -78 21 -32 22 -41 22 -271 l0 -239 60 0 60 0 0 258 0 257 -30 52
c-47 83 -121 128 -222 138 -29 3 -73 -1 -99 -8z m181 -33 c22 -9 40 -20 40
-25 0 -5 5 -9 11 -9 17 0 58 -50 79 -95 17 -36 18 -66 17 -275 l-2 -235 -30
-1 c-38 -1 -51 6 -34 17 9 6 10 9 2 9 -9 0 -12 58 -13 222 0 200 -2 224 -20
252 -30 49 -75 77 -135 83 -103 11 -165 -19 -205 -97 -17 -34 -20 -62 -20
-252 -1 -118 -4 -218 -8 -224 -4 -6 -20 -10 -37 -10 l-30 1 0 315 0 315 38 3
c20 2 37 -1 37 -7 0 -6 9 -15 19 -20 14 -8 25 -6 45 10 15 12 39 25 54 29 47
14 149 11 192 -6z"/>
</g>
</svg>
