<?xml version="1.0" standalone="no"?>
<!DOCTYPE svg PUBLIC "-//W3C//DTD SVG 20010904//EN"
 "http://www.w3.org/TR/2001/REC-SVG-20010904/DTD/svg10.dtd">
<svg version="1.0" xmlns="http://www.w3.org/2000/svg"
 width="300.000000pt" height="75.000000pt" viewBox="0 0 300.000000 75.000000"
 preserveAspectRatio="xMidYMid meet">
<metadata>
Created by potrace 1.10, written by Peter Selinger 2001-2011
</metadata>
<g transform="translate(0.000000,75.000000) scale(0.100000,-0.100000)"
fill="#000000" stroke="none">
<path d="M207 532 c-70 -70 -127 -132 -127 -137 0 -14 252 -265 266 -265 5 0
69 59 142 132 l132 132 -128 132 c-70 72 -134 132 -142 133 -8 0 -73 -56 -143
-127z m254 -22 c55 -55 99 -107 99 -116 0 -18 -197 -214 -215 -214 -13 0 -215
203 -215 216 0 14 203 214 219 214 7 0 58 -45 112 -100z"/>
<path d="M793 611 c-51 -24 -76 -59 -76 -110 0 -74 45 -113 153 -136 89 -19
108 -29 116 -61 11 -42 -24 -68 -90 -68 -44 -1 -59 4 -80 23 -14 14 -26 30
-26 38 0 16 -14 16 -57 0 l-32 -12 16 -33 c47 -97 226 -125 312 -48 33 29 53
80 45 114 -17 69 -72 108 -177 122 -72 11 -103 35 -93 73 13 55 133 56 158 2
10 -22 11 -22 49 -7 21 8 39 18 39 22 0 19 -48 64 -84 81 -53 24 -120 24 -173
0z"/>
<path d="M1160 395 l0 -235 40 0 40 0 0 235 0 235 -40 0 -40 0 0 -235z"/>
<path d="M1443 615 c-17 -7 -33 -12 -35 -10 -1 2 -20 5 -41 6 l-38 4 -2 -228
-2 -227 43 0 42 0 0 168 c0 187 4 202 64 222 36 12 71 3 99 -25 15 -14 17 -42
17 -191 l0 -174 45 0 45 0 0 173 c0 173 0 174 25 197 34 32 86 32 120 0 25
-23 25 -24 25 -197 l0 -173 45 0 45 0 0 167 c0 146 -2 172 -20 207 -47 97
-188 125 -266 54 -16 -14 -24 -16 -29 -8 -12 19 -87 50 -120 49 -16 0 -44 -6
-62 -14z m-28 -45 c7 -12 -40 -72 -49 -63 -11 11 -6 61 7 66 20 9 35 8 42 -3z
m253 -27 c-6 -7 -16 -30 -24 -50 -11 -32 -13 -34 -14 -13 0 14 -7 34 -15 44
-21 28 -19 31 24 31 30 0 37 -3 29 -12z"/>
<path d="M2146 615 c-57 -20 -96 -63 -103 -113 l-6 -42 47 0 c41 0 46 2 46 23
0 28 35 62 73 71 38 9 95 -19 103 -50 12 -49 2 -55 -140 -82 -99 -19 -154 -77
-142 -151 15 -96 153 -143 258 -87 43 23 44 23 67 5 13 -11 38 -19 57 -19 32
0 34 2 34 35 0 24 -5 35 -15 35 -28 0 -36 39 -34 166 1 146 -6 163 -81 202
-50 25 -106 28 -164 7z m214 -184 c0 -65 -8 -74 -35 -43 l-23 26 22 28 c29 37
36 35 36 -11z m-50 -88 c-1 -41 -11 -59 -50 -86 -35 -24 -114 -23 -140 3 -25
25 -25 33 3 65 18 21 35 28 90 35 38 4 71 11 74 14 15 15 23 3 23 -31z m71
-110 c13 -15 11 -16 -16 -9 -16 4 -36 7 -42 8 -19 2 -16 16 9 51 l22 31 7 -32
c4 -17 13 -39 20 -49z"/>
<path d="M2670 619 c-13 -6 -33 -17 -42 -26 -17 -15 -18 -15 -18 4 0 16 -6 19
-41 17 l-40 -2 -2 -226 -2 -226 43 0 42 0 0 155 c0 167 6 192 50 218 51 31
135 13 160 -32 6 -11 10 -89 10 -180 l0 -161 43 0 42 0 -5 185 -5 184 -40 41
c-54 55 -131 74 -195 49z m-61 -58 c11 -7 10 -14 -8 -39 -11 -17 -21 -35 -21
-41 0 -6 -4 -11 -8 -11 -10 0 -15 76 -7 90 8 12 26 13 44 1z"/>
</g>
</svg>
