<?xml version="1.0" standalone="no"?>
<!DOCTYPE svg PUBLIC "-//W3C//DTD SVG 20010904//EN"
 "http://www.w3.org/TR/2001/REC-SVG-20010904/DTD/svg10.dtd">
<svg version="1.0" xmlns="http://www.w3.org/2000/svg"
 width="1080.000000pt" height="271.000000pt" viewBox="0 0 1080.000000 271.000000"
 preserveAspectRatio="xMidYMid meet">

<g transform="translate(0.000000,271.000000) scale(0.100000,-0.100000)"
fill="#000000" stroke="none">
<path d="M757 1922 c-406 -406 -467 -471 -467 -497 0 -26 61 -91 468 -497 406
-407 471 -468 497 -468 26 0 90 60 487 457 252 252 462 469 467 483 6 18 5 36
-4 56 -7 16 -217 233 -467 482 -395 394 -457 452 -483 452 -26 0 -90 -59 -498
-468z"/>
<path d="M3035 2260 c-82 -13 -160 -37 -219 -67 -76 -39 -168 -133 -202 -206
-27 -57 -29 -72 -29 -177 0 -107 2 -119 29 -175 16 -33 55 -87 85 -119 108
-114 220 -166 408 -191 147 -19 220 -37 302 -76 111 -51 172 -139 157 -227
-18 -113 -201 -194 -406 -179 -95 6 -175 37 -233 87 -47 42 -97 127 -97 166 0
13 -4 25 -9 29 -9 5 -265 -86 -277 -98 -10 -10 40 -122 80 -180 77 -113 203
-196 363 -238 108 -29 333 -32 448 -6 241 56 393 200 426 405 28 170 -43 328
-195 437 -113 80 -217 116 -391 135 -129 14 -205 33 -283 71 -81 40 -112 83
-112 157 0 85 34 132 125 174 69 31 233 33 314 3 70 -26 144 -92 168 -150 10
-25 22 -45 27 -45 8 0 258 109 264 115 2 2 -11 32 -30 67 -66 125 -197 223
-358 267 -87 25 -265 35 -355 21z"/>
<path d="M4170 1425 l0 -845 150 0 150 0 0 845 0 845 -150 0 -150 0 0 -845z"/>
<path d="M5325 2264 c-63 -10 -142 -37 -192 -65 -29 -16 -55 -29 -58 -29 -3 0
-5 11 -5 25 l0 26 -147 -3 -148 -3 0 -815 0 -815 147 -3 147 -3 3 598 c3 583
4 599 24 643 27 57 100 124 172 158 77 36 212 38 284 5 59 -27 133 -95 161
-148 22 -40 22 -46 25 -647 l3 -608 149 0 149 0 3 607 c3 602 3 608 25 648 30
56 99 120 158 147 40 18 67 23 135 22 101 0 156 -22 225 -89 86 -84 80 -32 83
-722 l3 -613 149 0 150 0 0 603 c0 654 0 659 -56 770 -15 29 -61 86 -103 128
-133 133 -308 198 -497 185 -141 -10 -261 -56 -376 -144 l-64 -49 -52 48 c-58
53 -149 102 -232 124 -58 16 -214 27 -265 19z"/>
<path d="M7871 2259 c-208 -27 -399 -147 -473 -297 -30 -61 -33 -76 -37 -179
l-3 -113 150 0 149 0 5 69 c6 86 36 142 101 191 72 55 137 75 242 75 78 0 98
-4 146 -27 104 -52 168 -137 169 -226 0 -116 -91 -166 -360 -197 -157 -18
-231 -34 -325 -69 -146 -56 -265 -153 -320 -261 -28 -56 -30 -67 -30 -176 0
-113 1 -116 38 -191 62 -126 181 -215 343 -255 102 -25 314 -22 417 5 95 26
202 81 247 127 l33 34 44 -49 c25 -28 68 -61 101 -77 50 -24 71 -28 170 -32
l112 -3 0 125 0 126 -37 7 c-21 3 -51 15 -68 25 -62 37 -60 21 -65 534 -5 460
-5 471 -27 518 -108 234 -393 359 -722 316z m447 -1006 c-3 -115 -6 -133 -30
-179 -103 -196 -438 -290 -615 -171 -74 50 -96 89 -91 164 4 71 21 100 86 150
66 50 139 72 280 84 138 11 285 39 329 63 15 8 32 15 37 16 4 0 6 -57 4 -127z"/>
<path d="M9725 2261 c-125 -20 -219 -60 -289 -122 -19 -16 -36 -29 -40 -29 -3
0 -6 25 -6 55 l0 55 -145 0 -145 0 0 -820 0 -820 144 0 145 0 3 563 3 562 29
63 c114 246 476 304 671 108 28 -28 62 -73 75 -101 l25 -50 3 -572 3 -573 150
0 150 0 -3 588 c-3 534 -5 592 -22 642 -33 100 -78 173 -161 256 -89 90 -170
140 -280 174 -78 23 -229 34 -310 21z"/>
</g>
</svg>
